<?xml version="1.0" encoding="UTF-8"?>
<svg width="516px" height="532px" viewBox="0 0 516 532" version="1.1" xmlns="http://www.w3.org/2000/svg" xmlns:xlink="http://www.w3.org/1999/xlink">
    <title>Group 2</title>
    <g id="Page-1" stroke="none" stroke-width="1" fill="none" fill-rule="evenodd">
        <g id="Group-2" transform="translate(0.3399, 0)" fill-rule="nonzero">
            <g id="Group" transform="translate(69.6601, 0)">
                <path d="M185.092045,120.709926 C169.312023,115.829726 152.372474,123.503601 145.620194,138.60254 C138.867914,153.697115 144.425795,171.463139 158.575505,180.005672 C172.720857,188.543842 191.007374,185.169606 201.185924,172.144097 C211.364474,159.114224 210.231103,140.531923 198.553014,128.837775 C194.791092,125.070679 190.174781,122.281368 185.092045,120.709926 Z M184.255094,74.2563551 C226.320623,73.5623013 262.980839,102.804219 271.699084,144.019651 C280.417328,185.230717 258.752491,226.852106 220.02169,243.295499 C181.290891,259.738894 136.352701,246.394733 112.835236,211.465069 C89.317773,176.535405 93.816387,129.81556 123.563036,100.028004 C139.669992,83.8508822 161.448167,74.6055646 184.255094,74.2563551 Z" id="Shape" fill="#E48E66"></path>
                <path d="M185.092045,120.709926 C185.16615,120.736118 185.235896,120.762309 185.305642,120.784135 L185.305642,74.2650846 C184.956912,74.2650846 184.608182,74.2519903 184.255094,74.2554643 C136.078076,75.0377114 97.5129225,114.520191 97.8006248,162.772193 C98.0883265,211.019827 137.124265,250.039606 185.305642,250.244766 L185.305642,183.183477 C171.892624,187.435101 157.263409,182.611647 148.998514,171.209962 C140.72926,159.808278 140.67695,144.390685 148.86774,132.932254 C157.05853,121.473822 171.652871,116.554336 185.092045,120.714293 L185.092045,120.709926 Z" id="Path" fill="#D18162"></path>
                <path d="M364.827369,317.912805 L365.027888,359.861577 L364.993015,360.15404 L330.778266,360.564361 L326.493248,338.84354 L300.883407,330.549818 L295.761438,308.034546 L269.929279,299.932889 L266.189154,274.453703 L230.679745,238.895462 L230.243832,238.135932 C241.533958,231.461669 251.202491,222.364764 258.55633,211.495624 L364.827369,317.912805 Z" id="Path" fill="#F8EC7D"></path>
                <path d="M254.938259,92.9172295 C238.055378,75.8889094 215.479486,65.7269179 191.556624,64.3824608 C177.411271,26.4626925 141.640316,0.979140505 101.226894,0.0275453986 C60.8134739,-0.924050379 23.891709,22.8527406 7.98091377,60.0653605 C-7.92552372,97.282346 0.387322466,140.44462 28.970086,169.071055 C46.3978569,186.63192 69.8063424,196.951055 94.5094873,197.963763 C104.42213,223.399298 124.482811,243.539946 149.85726,253.531699 C175.231711,263.527816 203.618314,262.471458 228.181967,250.6158 L256.734218,279.21168 L259.990481,301.395203 C260.552809,305.214681 263.246745,308.375025 266.925845,309.527415 L287.252432,315.900487 L291.092818,332.780392 C291.87746,336.237565 294.423187,339.026874 297.792788,340.118153 L317.783723,346.587257 L320.926649,362.511202 C321.855142,367.221164 325.983231,370.617224 330.778266,370.617224 L330.900321,370.617224 L365.115071,370.202539 C370.162934,370.145792 374.382565,366.335045 374.971046,361.310795 L375.001559,361.022698 C375.04951,360.621107 375.071305,360.215151 375.071305,359.809195 L374.870786,317.860424 C374.857709,315.210798 373.798443,312.670299 371.928379,310.797665 L271.258813,209.989659 C292.518251,171.690125 285.861871,123.918287 254.938259,92.9172295 Z M167.616325,156.33801 C172.250071,159.397956 178.479257,158.118978 181.530643,153.483224 C185.270769,147.808571 188.409337,141.75852 190.898396,135.429101 C191.081478,135.603706 191.268921,135.765215 191.447646,135.948549 C198.858152,143.338691 200.26179,154.840775 194.843401,163.802359 C189.429372,172.75958 178.596953,176.849694 168.623281,173.702444 C158.649609,170.55083 152.119645,160.982494 152.812746,150.532404 C153.505847,140.082315 161.243288,131.465574 171.548253,129.667147 C169.686908,134.110836 167.415804,138.375554 164.765458,142.404557 C161.714073,147.044676 162.991296,153.282428 167.620684,156.33801 L167.616325,156.33801 Z M43.1721065,43.2334703 C61.3191311,25.0658551 87.164367,16.8812609 112.447275,21.2943943 C137.725823,25.7075275 159.281683,42.1683818 170.21872,65.4126292 C116.98948,73.9682579 80.6649158,123.9794 88.938529,177.325491 C71.6023005,175.169124 55.4909851,167.255167 43.1764653,154.845141 C12.4533725,124.001225 12.4533725,74.0773859 43.1721065,43.2334703 Z M130.659687,217.371071 C109.59205,196.270098 102.399498,164.976576 112.137777,136.773556 C121.880415,108.570537 146.845108,88.4124287 176.434828,84.8592234 C177.890775,92.9041335 178.100013,101.128014 177.045106,109.234035 C156.531077,108.470141 138.375334,122.425418 133.811332,142.465668 C129.242973,162.510284 139.561015,182.969586 158.379345,191.184737 C177.197675,199.404252 199.189447,193.053007 210.749838,176.068337 C222.314589,159.083668 220.169901,136.262837 205.654024,121.726999 C202.938291,119.020627 199.873828,116.68529 196.5391,114.795194 C198.117102,104.964952 198.208644,94.9513732 196.813724,85.0949402 C223.334623,88.9362428 246.019495,106.160993 256.869351,130.692949 C267.719205,155.224905 265.21271,183.61999 250.234766,205.86899 C237.235865,225.16717 216.299,237.633944 193.160781,239.864519 C170.02256,242.090728 147.102295,233.845022 130.668406,217.379802 L130.659687,217.371071 Z M354.936521,350.214669 L339.012647,350.406734 L336.344866,336.892333 C335.638687,333.312937 333.049368,330.397039 329.583867,329.270839 L309.409849,322.740624 L305.556386,305.799606 C304.758666,302.307513 302.173707,299.505107 298.764872,298.435654 L278.948304,292.219728 L276.127951,272.991389 C275.814095,270.852482 274.820215,268.870719 273.290163,267.342927 L245.727433,239.73793 C248.966261,237.219257 252.048161,234.49979 254.946977,231.596987 C256.529339,230.008084 258.037594,228.353706 259.506619,226.673135 L354.805747,322.103318 L354.936521,350.214669 Z" id="Shape" fill="#63316D"></path>
            </g>
            <g id="Simple-encryption-at" transform="translate(0, 514.7233)" fill="#63316D">
                <path d="M0,10.1232147 C0.0346984863,10.6034088 0.156509399,11.0492706 0.365432739,11.4608002 C0.574356079,11.8723297 0.868606567,12.2323608 1.2481842,12.5408936 C1.62776184,12.8494263 2.08751678,13.089386 2.62744904,13.2607727 C3.16738129,13.4321594 3.78643799,13.5178528 4.48461914,13.5178528 C5.45269775,13.5178528 6.28150177,13.3641357 6.97103119,13.0567017 C7.66056061,12.7492676 8.18996429,12.3190384 8.55924225,11.7660141 C8.9285202,11.2129898 9.11315918,10.5685272 9.11315918,9.83262634 C9.11315918,9.20594788 8.98844147,8.67578888 8.73900604,8.24214935 C8.48957062,7.80850983 8.12871552,7.45129395 7.65644073,7.17050171 C7.18416595,6.88970947 6.61116028,6.667099 5.93742371,6.50267029 L3.97663879,6.01817322 C3.44261169,5.88999939 3.03208923,5.69451141 2.74507141,5.43170929 C2.45805359,5.16890717 2.31454468,4.84140015 2.31454468,4.44918823 C2.31454468,3.91818237 2.52301025,3.4855957 2.93994141,3.15142822 C3.35687256,2.81726074 3.91676331,2.650177 4.61961365,2.650177 C5.06813049,2.650177 5.4597702,2.71891022 5.79453278,2.85637665 C6.12929535,2.99384308 6.40003967,3.18477631 6.60676575,3.42917633 C6.81349182,3.67357635 6.94793701,3.95658875 7.01010132,4.2782135 L8.94506836,4.2782135 C8.89736938,3.66426086 8.69377899,3.11061859 8.33429718,2.61728668 C7.97481537,2.12395477 7.48313141,1.73352814 6.8592453,1.44600677 C6.23535919,1.15848541 5.49673462,1.01472473 4.64337158,1.01472473 C3.79907227,1.01472473 3.05108643,1.16381836 2.39941406,1.46200562 C1.7477417,1.76019287 1.23664856,2.17586517 0.866134644,2.70902252 C0.495620728,3.24217987 0.31036377,3.86109924 0.31036377,4.56578064 C0.31036377,5.13496399 0.427597046,5.63562012 0.662063599,6.06774902 C0.896530151,6.49987793 1.23362732,6.86013794 1.6733551,7.14852905 C2.11308289,7.43692017 2.63722229,7.65490723 3.24577332,7.80249023 L5.21630859,8.29151917 C5.86376953,8.45027161 6.3422699,8.66246796 6.65180969,8.92810822 C6.96134949,9.19374847 7.11611938,9.5533905 7.11611938,10.0070343 C7.11611938,10.3791962 7.01900482,10.7053528 6.8247757,10.9855042 C6.63054657,11.2656555 6.34877014,11.4832764 5.97944641,11.6383667 C5.61012268,11.793457 5.1620636,11.8710022 4.63526917,11.8710022 C4.26145935,11.8710022 3.92170715,11.8286362 3.61601257,11.7439041 C3.31031799,11.6591721 3.04195404,11.5390778 2.81092072,11.3836212 C2.57988739,11.2281647 2.39268494,11.043663 2.24931335,10.8301163 C2.10594177,10.6165695 2.0096283,10.3809357 1.96037292,10.1232147 L0,10.1232147 Z" id="Path"></path>
                <path d="M11.618174,13.2767029 L13.5646766,13.2767029 L13.5646766,3.99078369 L11.618174,3.99078369 L11.618174,13.2767029 Z M11.2986091,1.19215393 C11.2986091,1.53684998 11.4195503,1.81954193 11.6614326,2.0402298 C11.903315,2.26091766 12.2096962,2.3712616 12.5805763,2.3712616 C12.9660133,2.3712616 13.279673,2.26091766 13.5215553,2.0402298 C13.7634376,1.81954193 13.8843788,1.53684998 13.8843788,1.19215393 C13.8843788,0.84022522 13.7630485,0.55355072 13.520388,0.332130432 C13.2777275,0.110710144 12.9644569,0 12.5805763,0 C12.2081398,0 11.9013695,0.110321045 11.6602653,0.330963135 C11.4191612,0.551605225 11.2986091,0.838668823 11.2986091,1.19215393 Z" id="Shape"></path>
                <path d="M16.5644683,13.2767029 L18.510971,13.2767029 L18.510971,7.49487305 C18.510971,7.08087158 18.5900497,6.72324371 18.748207,6.42198944 C18.9063644,6.12073517 19.1230926,5.88899231 19.3983916,5.72676086 C19.6736907,5.56452942 19.9867095,5.4834137 20.337448,5.4834137 C20.6978912,5.4834137 21.0118026,5.55867004 21.2791824,5.70918274 C21.5465621,5.85969543 21.7554168,6.07722473 21.9057464,6.36177063 C22.056076,6.64631653 22.1312408,6.99151611 22.1312408,7.39736938 L22.1312408,13.2767029 L24.0298156,13.2767029 L24.0298156,7.51245117 C24.0298156,7.09863281 24.1124648,6.74073029 24.2777633,6.43874359 C24.4430618,6.1367569 24.665512,5.90203857 24.9451141,5.73458862 C25.2247161,5.56713867 25.5392913,5.4834137 25.8888396,5.4834137 C26.2594451,5.4834137 26.5762634,5.55688477 26.8392944,5.7038269 C27.1023254,5.85076904 27.303215,6.06255341 27.4419631,6.33917999 C27.5807113,6.61580658 27.6500854,6.95118713 27.6500854,7.34532166 L27.6500854,13.2767029 L29.5965881,13.2767029 L29.5965881,6.76826477 C29.5965881,5.848526 29.3294601,5.13153076 28.7952041,4.61727905 C28.2609481,4.10302734 27.5199889,3.84590149 26.5723266,3.84590149 C26.0475463,3.84590149 25.5956878,3.92990112 25.216751,4.09790039 C24.8378143,4.26589966 24.527542,4.48285675 24.2859344,4.74877167 C24.0443267,5.01468658 23.8658904,5.29467773 23.7506255,5.58874512 L23.6686401,5.58874512 C23.5736083,5.25604248 23.4140548,4.95856476 23.1899795,4.69631195 C22.9659042,4.43405914 22.6799392,4.22676086 22.3320846,4.07441711 C21.98423,3.92207336 21.5751495,3.84590149 21.1048431,3.84590149 C20.5395049,3.84590149 20.0849456,3.93715668 19.7411651,4.11966705 C19.3973846,4.30217743 19.1356582,4.52066803 18.9559859,4.77513885 C18.7763137,5.02960968 18.6499023,5.26982117 18.5767516,5.49577332 L18.4789733,5.49577332 L18.4789733,3.99078369 L16.5644683,3.99078369 L16.5644683,13.2767029 Z" id="Path"></path>
                <path d="M37.0590068,13.4078522 C37.7912455,13.4078522 38.4230281,13.2439957 38.9543544,12.9162827 C39.4856807,12.5885696 39.8940059,12.1214676 40.17933,11.5149765 C40.4646541,10.9084854 40.6073161,10.1848297 40.6073161,9.3440094 L40.6073161,7.91235352 C40.6073161,7.07592773 40.4661189,6.35483551 40.1837245,5.74907684 C39.9013301,5.14331818 39.4987956,4.67697144 38.976121,4.35003662 C38.4534465,4.02310181 37.8296061,3.8596344 37.1046,3.8596344 C36.7736369,3.8596344 36.4624949,3.89586639 36.1711741,3.96833038 C35.8798533,4.04079437 35.6148997,4.14658356 35.3763133,4.28569794 C35.1377269,4.42481232 34.9316874,4.59358978 34.758195,4.79203033 C34.5847026,4.99047089 34.4510814,5.21351624 34.3573314,5.46116638 L34.259553,5.46116638 L34.259553,3.98419189 L32.3605662,3.98419189 L32.3605662,16.3580933 L34.3116008,16.3580933 L34.3116008,11.8797913 L34.4093791,11.8797913 C34.5512858,12.2066345 34.7482158,12.483284 35.0001689,12.7097397 C35.252122,12.9361954 35.5527812,13.1091614 35.9021464,13.2286377 C36.2515117,13.348114 36.6371318,13.4078522 37.0590068,13.4078522 Z M36.5069438,11.8092041 C36.0713359,11.8092041 35.6886226,11.7091827 35.3588038,11.50914 C35.0289851,11.3090973 34.7719966,11.0283279 34.5878383,10.666832 C34.4036799,10.305336 34.3116008,9.88787842 34.3116008,9.41445923 L34.3116008,8.004776 C34.3116008,7.47779846 34.3993541,7.02420044 34.5748607,6.64398193 C34.7503673,6.26376343 34.9997798,5.97184753 35.3230983,5.76823425 C35.6464168,5.56462097 36.0301829,5.46281433 36.4743968,5.46281433 C36.9332591,5.46281433 37.3232737,5.56965637 37.6444407,5.78334045 C37.9656077,5.99702454 38.2092067,6.30699921 38.3752376,6.71326447 C38.5412684,7.11952972 38.6242839,7.6129303 38.6242839,8.19346619 L38.6242839,9.08926392 C38.6242839,9.66394043 38.5412684,10.1537018 38.3752376,10.558548 C38.2092067,10.9633942 37.9688579,11.2730484 37.6541911,11.4875107 C37.3395244,11.701973 36.9571086,11.8092041 36.5069438,11.8092041 Z" id="Shape"></path>
                <polygon id="Path" points="43.053975 13.2767029 45.0026749 13.2767029 45.0026749 0.646820068 43.053975 0.646820068"></polygon>
                <path d="M51.5205939,13.435318 C52.1455328,13.435318 52.6872046,13.3503799 53.1456091,13.1805038 C53.6040137,13.0106277 53.9847815,12.7917938 54.2879126,12.5240021 C54.5910437,12.2562103 54.8235419,11.9704285 54.9854071,11.6666565 C55.1472723,11.3628845 55.2419836,11.0770569 55.269541,10.8091736 L53.3608038,10.8091736 C53.3174994,10.9996948 53.2140906,11.1761169 53.0505774,11.3384399 C52.8870642,11.5007629 52.6739523,11.6304703 52.4112417,11.727562 C52.1485312,11.8246536 51.8479407,11.8731995 51.5094702,11.8731995 C50.8230078,11.8731995 50.2900336,11.6520538 49.9105475,11.2097626 C49.5310614,10.7674713 49.3413183,10.2146301 49.3413183,9.55123901 L49.3413183,9.09489441 L55.3740484,9.09489441 L55.3740484,8.00408936 C55.3740484,7.15008545 55.2045157,6.41136932 54.8654501,5.78794098 C54.5263846,5.16451263 54.0592367,4.68269348 53.4640066,4.34248352 C52.8687765,4.00227356 52.1813299,3.83216858 51.4016669,3.83216858 C50.6477301,3.83216858 49.9697592,3.99694061 49.3677542,4.32648468 C48.7657492,4.65602875 48.2899039,5.13137054 47.9402182,5.75251007 C47.5905325,6.3736496 47.4156897,7.12417603 47.4156897,8.00408936 L47.4156897,9.26065063 C47.4156897,10.131958 47.5817435,10.8800354 47.913851,11.5048828 C48.2459585,12.1297302 48.7192404,12.6076813 49.3336966,12.938736 C49.9481528,13.2697906 50.6771185,13.435318 51.5205939,13.435318 Z M49.3413183,7.82157898 C49.3413183,7.79988098 49.3413183,7.77928162 49.3413183,7.75978088 C49.3413183,7.74028015 49.3413183,7.71968079 49.3413183,7.69798279 C49.3413183,7.23051453 49.4276526,6.82237244 49.600321,6.47355652 C49.7729895,6.1247406 50.0144827,5.85346985 50.3248007,5.65974426 C50.6351187,5.46601868 50.9971411,5.36915588 51.4108679,5.36915588 C51.8245032,5.36915588 52.1853354,5.46601868 52.4933645,5.65974426 C52.8013937,5.85346985 53.040621,6.1247406 53.2110464,6.47355652 C53.3814718,6.82237244 53.4666846,7.23051453 53.4666846,7.69798279 C53.4666846,7.71968079 53.4666846,7.74028015 53.4666846,7.75978088 C53.4666846,7.77928162 53.4666846,7.79988098 53.4666846,7.82157898 L49.3413183,7.82157898 Z" id="Shape"></path>
                <path d="M65.2573465,13.435318 C65.8822855,13.435318 66.4239573,13.3503799 66.8823618,13.1805038 C67.3407663,13.0106277 67.7215342,12.7917938 68.0246653,12.5240021 C68.3277964,12.2562103 68.5602945,11.9704285 68.7221598,11.6666565 C68.884025,11.3628845 68.9787363,11.0770569 69.0062937,10.8091736 L67.0975565,10.8091736 C67.0542521,10.9996948 66.9508433,11.1761169 66.7873301,11.3384399 C66.6238169,11.5007629 66.410705,11.6304703 66.1479944,11.727562 C65.8852839,11.8246536 65.5846934,11.8731995 65.2462229,11.8731995 C64.5597605,11.8731995 64.0267862,11.6520538 63.6473002,11.2097626 C63.2678141,10.7674713 63.078071,10.2146301 63.078071,9.55123901 L63.078071,9.09489441 L69.1108011,9.09489441 L69.1108011,8.00408936 C69.1108011,7.15008545 68.9412684,6.41136932 68.6022028,5.78794098 C68.2631373,5.16451263 67.7959894,4.68269348 67.2007593,4.34248352 C66.6055292,4.00227356 65.9180826,3.83216858 65.1384195,3.83216858 C64.3844828,3.83216858 63.7065119,3.99694061 63.1045069,4.32648468 C62.5025019,4.65602875 62.0266565,5.13137054 61.6769709,5.75251007 C61.3272852,6.3736496 61.1524424,7.12417603 61.1524424,8.00408936 L61.1524424,9.26065063 C61.1524424,10.131958 61.3184961,10.8800354 61.6506037,11.5048828 C61.9827112,12.1297302 62.4559931,12.6076813 63.0704493,12.938736 C63.6849054,13.2697906 64.4138712,13.435318 65.2573465,13.435318 Z M63.078071,7.82157898 C63.078071,7.79988098 63.078071,7.77928162 63.078071,7.75978088 C63.078071,7.74028015 63.078071,7.71968079 63.078071,7.69798279 C63.078071,7.23051453 63.1644053,6.82237244 63.3370737,6.47355652 C63.5097422,6.1247406 63.7512354,5.85346985 64.0615534,5.65974426 C64.3718714,5.46601868 64.7338938,5.36915588 65.1476206,5.36915588 C65.5612559,5.36915588 65.9220881,5.46601868 66.2301172,5.65974426 C66.5381464,5.85346985 66.7773737,6.1247406 66.9477991,6.47355652 C67.1182245,6.82237244 67.2034372,7.23051453 67.2034372,7.69798279 C67.2034372,7.71968079 67.2034372,7.74028015 67.2034372,7.75978088 C67.2034372,7.77928162 67.2034372,7.79988098 67.2034372,7.82157898 L63.078071,7.82157898 Z" id="Shape"></path>
                <path d="M71.4342229,13.2767029 L73.3807255,13.2767029 L73.3807255,8.11683655 C73.3807255,7.61347961 73.4638783,7.16521454 73.6301839,6.77204132 C73.7964894,6.3788681 74.0427205,6.06960297 74.3688771,5.84424591 C74.6950337,5.61888885 75.0971104,5.50621033 75.5751073,5.50621033 C75.9426915,5.50621033 76.2642476,5.58039093 76.5397755,5.72875214 C76.8153035,5.87711334 77.0305211,6.10299683 77.1854283,6.40640259 C77.3403355,6.70980835 77.4177891,7.09771729 77.4177891,7.57012939 L77.4177891,13.2767029 L79.3644292,13.2767029 L79.3644292,6.99884033 C79.3644292,5.93838501 79.0771138,5.14778137 78.5024831,4.62702942 C77.9278523,4.10627747 77.1731602,3.84590149 76.2384068,3.84590149 C75.6139256,3.84590149 75.1105458,3.94615173 74.7282674,4.14665222 C74.3459889,4.34715271 74.0569112,4.58720398 73.8610341,4.86680603 C73.665157,5.14640808 73.526981,5.40852356 73.4465062,5.65315247 L73.3487279,5.65315247 L73.3487279,3.99078369 L71.4342229,3.99078369 L71.4342229,13.2767029 Z" id="Path"></path>
                <path d="M81.6829207,9.27946472 C81.6829207,10.1337433 81.8447401,10.8708801 82.168379,11.4908752 C82.4920179,12.1108704 82.9529173,12.5899429 83.5510771,12.928093 C84.1492369,13.266243 84.8601667,13.435318 85.6838667,13.435318 C86.5155317,13.435318 87.2056105,13.2991562 87.7541029,13.0268326 C88.3025953,12.754509 88.7164824,12.3943863 88.995764,11.9464645 C89.2750456,11.4985428 89.4219191,11.0146637 89.4363844,10.4948273 L87.5950758,10.4948273 C87.5501234,10.7385406 87.4606306,10.9607162 87.3265974,11.1613541 C87.1925642,11.3619919 86.9980375,11.5214996 86.7430174,11.6398773 C86.4879973,11.758255 86.1522505,11.8174438 85.7357771,11.8174438 C85.0817244,11.8174438 84.5686857,11.58918 84.1966612,11.1326523 C83.8246367,10.6761246 83.6386244,10.0589447 83.6386244,9.28111267 L83.6386244,7.97964478 C83.6386244,7.20877075 83.8171064,6.59481812 84.1740706,6.13778687 C84.5310347,5.68075562 85.0508253,5.45223999 85.7334425,5.45223999 C86.164015,5.45223999 86.5061018,5.52889252 86.7597029,5.68219757 C87.013304,5.83550262 87.2003691,6.02190399 87.3208983,6.24140167 C87.4414274,6.46089935 87.5154707,6.66920471 87.5430281,6.86631775 L89.3843367,6.86631775 C89.3741743,6.33805847 89.2261564,5.84376526 88.940283,5.38343811 C88.6544096,4.92311096 88.2394011,4.54948425 87.6952574,4.26255798 C87.1511137,3.97563171 86.4821608,3.83216858 85.6883986,3.83216858 C84.8708326,3.83216858 84.1621916,4.00124359 83.5624754,4.33939362 C82.9627592,4.67754364 82.499571,5.15361786 82.1729109,5.76761627 C81.8462507,6.38161469 81.6829207,7.10453796 81.6829207,7.93638611 L81.6829207,9.27946472 Z" id="Path"></path>
                <path d="M91.7768606,13.2767029 L93.7575582,13.2767029 L93.7575582,7.74659729 C93.7575582,7.32902527 93.8426107,6.95565033 94.0127157,6.62647247 C94.1828207,6.29729462 94.4406561,6.03771973 94.7862219,5.8477478 C95.1317877,5.65777588 95.5662283,5.56278992 96.0895437,5.56278992 C96.25324,5.56278992 96.4113516,5.56839752 96.5638784,5.57961273 C96.7164053,5.59082794 96.8353323,5.60687256 96.9206594,5.62774658 L96.9206594,3.90577698 C96.8283743,3.88801575 96.7276892,3.87467194 96.6186041,3.86574554 C96.509519,3.85681915 96.3911184,3.85235596 96.2634024,3.85235596 C95.7478689,3.85235596 95.3223318,3.94139099 94.986791,4.11946106 C94.6512503,4.29753113 94.3913092,4.50858307 94.2069677,4.75261688 C94.0226263,4.9966507 93.89475,5.22349548 93.8233389,5.43315125 L93.7255606,5.43315125 L93.7255606,3.99078369 L91.7768606,3.99078369 L91.7768606,13.2767029 Z" id="Path"></path>
                <path d="M106.792495,3.99078369 L104.723769,3.99078369 L102.484481,11.5036469 L102.402358,11.5036469 L100.188201,3.99078369 L98.030898,3.99078369 L101.339431,13.3483887 L101.261428,13.6440582 C101.148635,14.1313934 100.951865,14.482338 100.671119,14.6968918 C100.390372,14.9114456 99.9884786,15.0187225 99.4654378,15.0187225 C99.3590535,15.0187225 99.2321157,15.0128632 99.0846242,15.0011444 C98.9371327,14.9894257 98.8267201,14.9783478 98.7533864,14.9679108 L98.7533864,16.4452972 C98.8799123,16.4733124 99.0463323,16.495079 99.2526464,16.5105972 C99.4589604,16.5261154 99.6495046,16.5338745 99.8242787,16.5338745 C100.725158,16.5338745 101.454718,16.3146057 102.012961,15.8760681 C102.571204,15.4375305 103.042769,14.7064362 103.427657,13.682785 L103.625823,13.1562653 C103.832732,12.5719757 104.057059,11.934288 104.298804,11.2432022 C104.540549,10.5521164 104.796027,9.81763458 105.065238,9.03975677 C105.334449,8.26187897 105.613913,7.44934845 105.903632,6.60216522 C106.193351,5.75498199 106.489638,4.88452148 106.792495,3.99078369 Z" id="Path"></path>
                <path d="M113.448647,13.4078522 C114.180886,13.4078522 114.812668,13.2439957 115.343994,12.9162827 C115.875321,12.5885696 116.283646,12.1214676 116.56897,11.5149765 C116.854294,10.9084854 116.996956,10.1848297 116.996956,9.3440094 L116.996956,7.91235352 C116.996956,7.07592773 116.855759,6.35483551 116.573365,5.74907684 C116.29097,5.14331818 115.888436,4.67697144 115.365761,4.35003662 C114.843087,4.02310181 114.219246,3.8596344 113.49424,3.8596344 C113.163277,3.8596344 112.852135,3.89586639 112.560814,3.96833038 C112.269493,4.04079437 112.00454,4.14658356 111.765953,4.28569794 C111.527367,4.42481232 111.321328,4.59358978 111.147835,4.79203033 C110.974343,4.99047089 110.840721,5.21351624 110.746971,5.46116638 L110.649193,5.46116638 L110.649193,3.98419189 L108.750206,3.98419189 L108.750206,16.3580933 L110.701241,16.3580933 L110.701241,11.8797913 L110.799019,11.8797913 C110.940926,12.2066345 111.137856,12.483284 111.389809,12.7097397 C111.641762,12.9361954 111.942421,13.1091614 112.291787,13.2286377 C112.641152,13.348114 113.026772,13.4078522 113.448647,13.4078522 Z M112.896584,11.8092041 C112.460976,11.8092041 112.078263,11.7091827 111.748444,11.50914 C111.418625,11.3090973 111.161637,11.0283279 110.977478,10.666832 C110.79332,10.305336 110.701241,9.88787842 110.701241,9.41445923 L110.701241,8.004776 C110.701241,7.47779846 110.788994,7.02420044 110.964501,6.64398193 C111.140007,6.26376343 111.38942,5.97184753 111.712738,5.76823425 C112.036057,5.56462097 112.419823,5.46281433 112.864037,5.46281433 C113.322899,5.46281433 113.712914,5.56965637 114.034081,5.78334045 C114.355248,5.99702454 114.598847,6.30699921 114.764878,6.71326447 C114.930909,7.11952972 115.013924,7.6129303 115.013924,8.19346619 L115.013924,9.08926392 C115.013924,9.66394043 114.930909,10.1537018 114.764878,10.558548 C114.598847,10.9633942 114.358498,11.2730484 114.043831,11.4875107 C113.729164,11.701973 113.346749,11.8092041 112.896584,11.8092041 Z" id="Shape"></path>
                <path d="M119.945725,4.04777527 L118.502945,4.04777527 L118.502945,5.57624817 L119.918396,5.57624817 L119.918396,10.6626434 C119.918396,11.2816315 120.001549,11.7892685 120.167855,12.1855545 C120.33416,12.5818405 120.625939,12.8736191 121.04319,13.0608902 C121.460442,13.2481613 122.045441,13.3417969 122.798188,13.3417969 C123.017731,13.3417969 123.261101,13.3310852 123.528298,13.3096619 C123.795494,13.2882385 123.967545,13.2701569 124.044449,13.2554169 L124.044449,11.7614136 C123.968003,11.7672729 123.854317,11.7752838 123.703392,11.7854462 C123.552468,11.7956085 123.411316,11.8006897 123.279938,11.8006897 C122.75644,11.8006897 122.388192,11.7119064 122.175194,11.5343399 C121.962197,11.3567734 121.855698,11.0150299 121.855698,10.5091095 L121.855698,5.57624817 L123.933762,5.57624817 L123.933762,4.04777527 L121.855698,4.04777527 L121.855698,1.72746277 L119.945725,1.72746277 L119.945725,4.04777527 Z" id="Path"></path>
                <path d="M126.420592,13.2767029 L128.367095,13.2767029 L128.367095,3.99078369 L126.420592,3.99078369 L126.420592,13.2767029 Z M126.101027,1.19215393 C126.101027,1.53684998 126.221968,1.81954193 126.463851,2.0402298 C126.705733,2.26091766 127.012114,2.3712616 127.382994,2.3712616 C127.768431,2.3712616 128.082091,2.26091766 128.323973,2.0402298 C128.565856,1.81954193 128.686797,1.53684998 128.686797,1.19215393 C128.686797,0.84022522 128.565467,0.55355072 128.322806,0.332130432 C128.080146,0.110710144 127.766875,0 127.382994,0 C127.010558,0 126.703788,0.110321045 126.462684,0.330963135 C126.221579,0.551605225 126.101027,0.838668823 126.101027,1.19215393 Z" id="Shape"></path>
                <path d="M135.065159,3.83216858 C134.254002,3.83216858 133.537281,4.00499725 132.914997,4.3506546 C132.292714,4.69631195 131.805996,5.18236542 131.454846,5.808815 C131.103695,6.43526459 130.92812,7.17301941 130.92812,8.02207947 L130.92812,9.22288513 C130.92812,10.1222992 131.10262,10.8856201 131.451619,11.5128479 C131.800618,12.1400757 132.28516,12.6172943 132.905247,12.9445038 C133.525334,13.2717133 134.245304,13.435318 135.065159,13.435318 C135.87476,13.435318 136.589238,13.2706375 137.208592,12.9412766 C137.827946,12.6119156 138.312809,12.1332321 138.663182,11.5052261 C139.013554,10.8772202 139.18874,10.1149292 139.18874,9.21835327 L139.18874,8.01521301 C139.18874,7.14454651 139.013554,6.39635468 138.663182,5.77063751 C138.312809,5.14492035 137.827946,4.6654129 137.208592,4.33211517 C136.589238,3.99881744 135.87476,3.83216858 135.065159,3.83216858 Z M135.069416,5.40335083 C135.533223,5.40335083 135.925526,5.52140808 136.246327,5.75752258 C136.567128,5.99363708 136.810658,6.31535339 136.976918,6.72267151 C137.143177,7.12998962 137.226307,7.59375 137.226307,8.11395264 L137.226307,9.15765381 C137.226307,9.67739868 137.146107,10.1413193 136.985707,10.5494156 C136.825306,10.9575119 136.585781,11.2786331 136.267132,11.5127792 C135.948483,11.7469254 135.549244,11.8639984 135.069416,11.8639984 C134.589497,11.8639984 134.187672,11.7465363 133.863942,11.5116119 C133.540211,11.2766876 133.29707,10.9551773 133.134518,10.547081 C132.971966,10.1389847 132.89069,9.67584229 132.89069,9.15765381 L132.89069,8.11395264 C132.89069,7.5953064 132.975972,7.13230133 133.146534,6.72493744 C133.317097,6.31757355 133.564244,5.99546814 133.887974,5.75862122 C134.211705,5.52177429 134.605519,5.40335083 135.069416,5.40335083 Z" id="Shape"></path>
                <path d="M141.551273,13.2767029 L143.497776,13.2767029 L143.497776,8.11683655 C143.497776,7.61347961 143.580929,7.16521454 143.747234,6.77204132 C143.91354,6.3788681 144.159771,6.06960297 144.485928,5.84424591 C144.812084,5.61888885 145.214161,5.50621033 145.692158,5.50621033 C146.059742,5.50621033 146.381298,5.58039093 146.656826,5.72875214 C146.932354,5.87711334 147.147572,6.10299683 147.302479,6.40640259 C147.457386,6.70980835 147.53484,7.09771729 147.53484,7.57012939 L147.53484,13.2767029 L149.48148,13.2767029 L149.48148,6.99884033 C149.48148,5.93838501 149.194164,5.14778137 148.619534,4.62702942 C148.044903,4.10627747 147.290211,3.84590149 146.355457,3.84590149 C145.730976,3.84590149 145.227596,3.94615173 144.845318,4.14665222 C144.463039,4.34715271 144.173962,4.58720398 143.978085,4.86680603 C143.782208,5.14640808 143.644032,5.40852356 143.563557,5.65315247 L143.465778,5.65315247 L143.465778,3.99078369 L141.551273,3.99078369 L141.551273,13.2767029 Z" id="Path"></path>
                <polygon id="Path" points="157.250615 9.22137451 157.250615 7.48828125 151.713505 7.48828125 151.713505 9.22137451"></polygon>
                <path d="M162.044362,13.4215851 C162.504414,13.4215851 162.902417,13.3585968 163.238369,13.2326202 C163.574322,13.1066437 163.856625,12.9408417 164.085278,12.7352142 C164.313931,12.5295868 164.496693,12.3084412 164.633564,12.0717773 L164.724888,12.0717773 L164.724888,13.2767029 L166.577183,13.2767029 L166.577183,6.98510742 C166.577183,6.21359253 166.412709,5.59831238 166.08376,5.13926697 C165.754811,4.68022156 165.315335,4.34989929 164.765332,4.14830017 C164.215329,3.94670105 163.607579,3.84590149 162.942082,3.84590149 C162.365666,3.84590149 161.859127,3.90795135 161.422467,4.03205109 C160.985806,4.15615082 160.619412,4.33385468 160.323285,4.56516266 C160.027157,4.79647064 159.798001,5.07078552 159.635815,5.3881073 C159.473629,5.70542908 159.37798,6.05735779 159.348866,6.44389343 L161.207753,6.44389343 C161.259755,6.23799133 161.349865,6.05687714 161.478085,5.90055084 C161.606305,5.74422455 161.785176,5.62115479 162.014698,5.53134155 C162.244221,5.44152832 162.53513,5.3966217 162.887425,5.3966217 C163.421452,5.3966217 163.845982,5.52399445 164.161015,5.77873993 C164.476048,6.03348541 164.633564,6.42558289 164.633564,6.95503235 L164.633564,7.831604 L162.284687,7.831604 C161.214711,7.831604 160.400097,8.08367157 159.840847,8.5878067 C159.281598,9.09194183 159.001973,9.75604248 159.001973,10.5801086 C159.001973,11.447937 159.284092,12.1384735 159.848332,12.6517181 C160.412571,13.1649628 161.144581,13.4215851 162.044362,13.4215851 Z M162.642704,11.9051971 C162.205815,11.9051971 161.816212,11.7889709 161.473896,11.5565186 C161.131581,11.3240662 160.960423,10.9646759 160.960423,10.4783478 C160.960423,10.0904388 161.090382,9.76972961 161.3503,9.51622009 C161.610218,9.26271057 162.024907,9.13595581 162.594365,9.13595581 L164.633564,9.13595581 L164.633564,10.135849 C164.633564,10.4748688 164.544735,10.7774506 164.367077,11.0435944 C164.189419,11.3097382 163.951039,11.5198746 163.651936,11.6740036 C163.352833,11.8281326 163.016423,11.9051971 162.642704,11.9051971 Z" id="Shape"></path>
                <path d="M169.8871,4.04777527 L168.444321,4.04777527 L168.444321,5.57624817 L169.859772,5.57624817 L169.859772,10.6626434 C169.859772,11.2816315 169.942924,11.7892685 170.10923,12.1855545 C170.275536,12.5818405 170.567314,12.8736191 170.984566,13.0608902 C171.401817,13.2481613 171.986816,13.3417969 172.739563,13.3417969 C172.959106,13.3417969 173.202476,13.3310852 173.469673,13.3096619 C173.73687,13.2882385 173.90892,13.2701569 173.985825,13.2554169 L173.985825,11.7614136 C173.909378,11.7672729 173.795692,11.7752838 173.644768,11.7854462 C173.493843,11.7956085 173.352692,11.8006897 173.221313,11.8006897 C172.697815,11.8006897 172.329567,11.7119064 172.116569,11.5343399 C171.903572,11.3567734 171.797073,11.0150299 171.797073,10.5091095 L171.797073,5.57624817 L173.875137,5.57624817 L173.875137,4.04777527 L171.797073,4.04777527 L171.797073,1.72746277 L169.8871,1.72746277 L169.8871,4.04777527 Z" id="Path"></path>
                <polygon id="Path" points="180.827343 9.22137451 180.827343 7.48828125 175.290233 7.48828125 175.290233 9.22137451"></polygon>
                <path d="M183.197643,13.2767029 L185.178341,13.2767029 L185.178341,7.74659729 C185.178341,7.32902527 185.263393,6.95565033 185.433498,6.62647247 C185.603603,6.29729462 185.861438,6.03771973 186.207004,5.8477478 C186.55257,5.65777588 186.987011,5.56278992 187.510326,5.56278992 C187.674022,5.56278992 187.832134,5.56839752 187.984661,5.57961273 C188.137188,5.59082794 188.256115,5.60687256 188.341442,5.62774658 L188.341442,3.90577698 C188.249157,3.88801575 188.148471,3.87467194 188.039386,3.86574554 C187.930301,3.85681915 187.811901,3.85235596 187.684185,3.85235596 C187.168651,3.85235596 186.743114,3.94139099 186.407573,4.11946106 C186.072033,4.29753113 185.812091,4.50858307 185.62775,4.75261688 C185.443409,4.9966507 185.315532,5.22349548 185.244121,5.43315125 L185.146343,5.43315125 L185.146343,3.99078369 L183.197643,3.99078369 L183.197643,13.2767029 Z" id="Path"></path>
                <path d="M193.801752,13.435318 C194.426691,13.435318 194.968362,13.3503799 195.426767,13.1805038 C195.885171,13.0106277 196.265939,12.7917938 196.56907,12.5240021 C196.872201,12.2562103 197.1047,11.9704285 197.266565,11.6666565 C197.42843,11.3628845 197.523141,11.0770569 197.550699,10.8091736 L195.641962,10.8091736 C195.598657,10.9996948 195.495248,11.1761169 195.331735,11.3384399 C195.168222,11.5007629 194.95511,11.6304703 194.692399,11.727562 C194.429689,11.8246536 194.129098,11.8731995 193.790628,11.8731995 C193.104165,11.8731995 192.571191,11.6520538 192.191705,11.2097626 C191.812219,10.7674713 191.622476,10.2146301 191.622476,9.55123901 L191.622476,9.09489441 L197.655206,9.09489441 L197.655206,8.00408936 C197.655206,7.15008545 197.485673,6.41136932 197.146608,5.78794098 C196.807542,5.16451263 196.340394,4.68269348 195.745164,4.34248352 C195.149934,4.00227356 194.462488,3.83216858 193.682825,3.83216858 C192.928888,3.83216858 192.250917,3.99694061 191.648912,4.32648468 C191.046907,4.65602875 190.571062,5.13137054 190.221376,5.75251007 C189.87169,6.3736496 189.696847,7.12417603 189.696847,8.00408936 L189.696847,9.26065063 C189.696847,10.131958 189.862901,10.8800354 190.195009,11.5048828 C190.527116,12.1297302 191.000398,12.6076813 191.614854,12.938736 C192.22931,13.2697906 192.958276,13.435318 193.801752,13.435318 Z M191.622476,7.82157898 C191.622476,7.79988098 191.622476,7.77928162 191.622476,7.75978088 C191.622476,7.74028015 191.622476,7.71968079 191.622476,7.69798279 C191.622476,7.23051453 191.70881,6.82237244 191.881479,6.47355652 C192.054147,6.1247406 192.29564,5.85346985 192.605958,5.65974426 C192.916276,5.46601868 193.278299,5.36915588 193.692026,5.36915588 C194.105661,5.36915588 194.466493,5.46601868 194.774522,5.65974426 C195.082551,5.85346985 195.321779,6.1247406 195.492204,6.47355652 C195.66263,6.82237244 195.747842,7.23051453 195.747842,7.69798279 C195.747842,7.71968079 195.747842,7.74028015 195.747842,7.75978088 C195.747842,7.77928162 195.747842,7.79988098 195.747842,7.82157898 L191.622476,7.82157898 Z" id="Shape"></path>
                <path d="M199.576803,6.68984985 C199.576803,7.29483032 199.71546,7.76911926 199.992773,8.11271667 C200.270086,8.45631409 200.642179,8.71673584 201.109052,8.89398193 C201.575926,9.07122803 202.091161,9.21835327 202.65476,9.33535767 C203.074438,9.41427612 203.459348,9.49777222 203.809492,9.58584595 C204.159635,9.67391968 204.440679,9.80138397 204.652624,9.96823883 C204.864568,10.1350937 204.970541,10.3796997 204.970541,10.7020569 C204.970541,10.9421997 204.906866,11.1612396 204.779516,11.3591766 C204.652166,11.5571136 204.45281,11.7157288 204.181448,11.835022 C203.910085,11.9543152 203.556188,12.0139618 203.119756,12.0139618 C202.729742,12.0139618 202.406149,11.9632416 202.148977,11.8618011 C201.891805,11.7603607 201.695425,11.6166916 201.559835,11.4307938 C201.424246,11.2448959 201.337591,11.0273895 201.299871,10.7782745 L199.40267,10.7782745 C199.40267,11.3321686 199.551099,11.8068924 199.847959,12.202446 C200.144819,12.5979996 200.564886,12.9023666 201.10816,13.1155472 C201.651434,13.3287277 202.29157,13.435318 203.02857,13.435318 C203.813726,13.435318 204.493665,13.3189774 205.068388,13.0862961 C205.64311,12.8536148 206.087003,12.5161057 206.400068,12.0737686 C206.713133,11.6314316 206.869665,11.0979767 206.869665,10.4734039 C206.869665,9.88536072 206.733915,9.41938019 206.462415,9.07546234 C206.190916,8.73154449 205.823812,8.4681015 205.361105,8.28513336 C204.898397,8.10216522 204.377737,7.96238708 203.799123,7.86579895 C203.54305,7.82194519 203.277525,7.7744751 203.002546,7.72338867 C202.727567,7.67230225 202.472982,7.60153198 202.23879,7.51107788 C202.004598,7.42062378 201.81442,7.29695892 201.668256,7.14008331 C201.522093,6.9832077 201.449011,6.77494812 201.449011,6.51530457 C201.449011,6.11833191 201.603117,5.80911255 201.911329,5.58764648 C202.219541,5.36618042 202.623678,5.25544739 203.123739,5.25544739 C203.500662,5.25544739 203.812879,5.31591797 204.060392,5.43685913 C204.307905,5.55780029 204.497236,5.71263885 204.628385,5.90137482 C204.759535,6.09011078 204.833898,6.28656006 204.851476,6.49072266 L206.609289,6.49072266 C206.609289,5.9395752 206.464933,5.46633911 206.176222,5.0710144 C205.88751,4.6756897 205.485845,4.37038422 204.971227,4.15509796 C204.456609,3.93981171 203.858221,3.83216858 203.176061,3.83216858 C202.548742,3.83216858 201.961225,3.92999268 201.413511,4.12564087 C200.865797,4.32128906 200.42275,4.6288147 200.084371,5.04821777 C199.745992,5.46762085 199.576803,6.01483154 199.576803,6.68984985 Z" id="Path"></path>
                <path d="M209.722104,4.04777527 L208.279324,4.04777527 L208.279324,5.57624817 L209.694775,5.57624817 L209.694775,10.6626434 C209.694775,11.2816315 209.777928,11.7892685 209.944234,12.1855545 C210.110539,12.5818405 210.402318,12.8736191 210.819569,13.0608902 C211.236821,13.2481613 211.82182,13.3417969 212.574567,13.3417969 C212.79411,13.3417969 213.03748,13.3310852 213.304677,13.3096619 C213.571874,13.2882385 213.743924,13.2701569 213.820828,13.2554169 L213.820828,11.7614136 C213.744382,11.7672729 213.630696,11.7752838 213.479771,11.7854462 C213.328847,11.7956085 213.187695,11.8006897 213.056317,11.8006897 C212.532819,11.8006897 212.164571,11.7119064 211.951573,11.5343399 C211.738576,11.3567734 211.632077,11.0150299 211.632077,10.5091095 L211.632077,5.57624817 L213.710141,5.57624817 L213.710141,4.04777527 L211.632077,4.04777527 L211.632077,1.72746277 L209.722104,1.72746277 L209.722104,4.04777527 Z" id="Path"></path>
                <polygon id="Path" points="231.750775 3.99078369 229.806469 3.99078369 228.279095 11.0677643 228.196972 11.0677643 226.26791 3.99078369 224.437039 3.99078369 222.558102 11.0677643 222.475979 11.0677643 220.981152 3.99078369 218.880154 3.99078369 221.426098 13.2767029 223.426296 13.2767029 225.325421 6.41889954 225.383511 6.41889954 227.323971 13.2767029 229.308377 13.2767029"></polygon>
                <path d="M233.738266,13.2767029 L235.684769,13.2767029 L235.684769,3.99078369 L233.738266,3.99078369 L233.738266,13.2767029 Z M233.418701,1.19215393 C233.418701,1.53684998 233.539642,1.81954193 233.781525,2.0402298 C234.023407,2.26091766 234.329788,2.3712616 234.700668,2.3712616 C235.086105,2.3712616 235.399765,2.26091766 235.641647,2.0402298 C235.88353,1.81954193 236.004471,1.53684998 236.004471,1.19215393 C236.004471,0.84022522 235.883141,0.55355072 235.64048,0.332130432 C235.39782,0.110710144 235.084549,0 234.700668,0 C234.328232,0 234.021462,0.110321045 233.780358,0.330963135 C233.539253,0.551605225 233.418701,0.838668823 233.418701,1.19215393 Z" id="Shape"></path>
                <path d="M239.248606,4.04777527 L237.805826,4.04777527 L237.805826,5.57624817 L239.221277,5.57624817 L239.221277,10.6626434 C239.221277,11.2816315 239.30443,11.7892685 239.470736,12.1855545 C239.637041,12.5818405 239.92882,12.8736191 240.346071,13.0608902 C240.763323,13.2481613 241.348322,13.3417969 242.101068,13.3417969 C242.320612,13.3417969 242.563982,13.3310852 242.831179,13.3096619 C243.098375,13.2882385 243.270426,13.2701569 243.34733,13.2554169 L243.34733,11.7614136 C243.270884,11.7672729 243.157198,11.7752838 243.006273,11.7854462 C242.855349,11.7956085 242.714197,11.8006897 242.582819,11.8006897 C242.05932,11.8006897 241.691072,11.7119064 241.478075,11.5343399 C241.265078,11.3567734 241.158579,11.0150299 241.158579,10.5091095 L241.158579,5.57624817 L243.236643,5.57624817 L243.236643,4.04777527 L241.158579,4.04777527 L241.158579,1.72746277 L239.248606,1.72746277 L239.248606,4.04777527 Z" id="Path"></path>
                <path d="M245.555931,13.2767029 L247.502572,13.2767029 L247.502572,8.11683655 C247.502572,7.61347961 247.587166,7.16521454 247.756356,6.77204132 C247.925545,6.3788681 248.173973,6.06960297 248.501641,5.84424591 C248.829308,5.61888885 249.22564,5.50621033 249.690636,5.50621033 C250.061333,5.50621033 250.388085,5.58039093 250.670891,5.72875214 C250.953698,5.87711334 251.175415,6.1051712 251.336045,6.41292572 C251.496674,6.72068024 251.576989,7.11076355 251.576989,7.58317566 L251.576989,13.2767029 L253.523491,13.2767029 L253.523491,7.0118866 C253.523491,5.95143127 253.231415,5.15865326 252.647263,4.63355255 C252.063111,4.10845184 251.321145,3.84590149 250.421364,3.84590149 C249.799904,3.84590149 249.293068,3.9504776 248.900856,4.15962982 C248.508645,4.36878204 248.210686,4.61533356 248.006981,4.89928436 C247.803276,5.18323517 247.667687,5.43452454 247.600212,5.65315247 L247.502572,5.65315247 L247.502572,0.646820068 L245.555931,0.646820068 L245.555931,13.2767029 Z" id="Path"></path>
                <polygon id="Path" points="262.131527 9.95251465 262.884365 9.15847778 265.79794 13.2767029 268.09422 13.2767029 264.347882 8.00999451 267.859112 3.99078369 265.636441 3.99078369 262.216259 8.01493835 262.131527 8.01493835 262.131527 0.646820068 260.18269 0.646820068 260.18269 13.2767029 262.131527 13.2767029"></polygon>
                <path d="M273.119645,13.435318 C273.744584,13.435318 274.286255,13.3503799 274.74466,13.1805038 C275.203064,13.0106277 275.583832,12.7917938 275.886963,12.5240021 C276.190095,12.2562103 276.422593,11.9704285 276.584458,11.6666565 C276.746323,11.3628845 276.841034,11.0770569 276.868592,10.8091736 L274.959855,10.8091736 C274.91655,10.9996948 274.813141,11.1761169 274.649628,11.3384399 C274.486115,11.5007629 274.273003,11.6304703 274.010293,11.727562 C273.747582,11.8246536 273.446991,11.8731995 273.108521,11.8731995 C272.422059,11.8731995 271.889084,11.6520538 271.509598,11.2097626 C271.130112,10.7674713 270.940369,10.2146301 270.940369,9.55123901 L270.940369,9.09489441 L276.973099,9.09489441 L276.973099,8.00408936 C276.973099,7.15008545 276.803567,6.41136932 276.464501,5.78794098 C276.125435,5.16451263 275.658288,4.68269348 275.063057,4.34248352 C274.467827,4.00227356 273.780381,3.83216858 273.000718,3.83216858 C272.246781,3.83216858 271.56881,3.99694061 270.966805,4.32648468 C270.3648,4.65602875 269.888955,5.13137054 269.539269,5.75251007 C269.189583,6.3736496 269.014741,7.12417603 269.014741,8.00408936 L269.014741,9.26065063 C269.014741,10.131958 269.180794,10.8800354 269.512902,11.5048828 C269.845009,12.1297302 270.318291,12.6076813 270.932747,12.938736 C271.547204,13.2697906 272.276169,13.435318 273.119645,13.435318 Z M270.940369,7.82157898 C270.940369,7.79988098 270.940369,7.77928162 270.940369,7.75978088 C270.940369,7.74028015 270.940369,7.71968079 270.940369,7.69798279 C270.940369,7.23051453 271.026703,6.82237244 271.199372,6.47355652 C271.37204,6.1247406 271.613534,5.85346985 271.923852,5.65974426 C272.23417,5.46601868 272.596192,5.36915588 273.009919,5.36915588 C273.423554,5.36915588 273.784386,5.46601868 274.092415,5.65974426 C274.400445,5.85346985 274.639672,6.1247406 274.810097,6.47355652 C274.980523,6.82237244 275.065735,7.23051453 275.065735,7.69798279 C275.065735,7.71968079 275.065735,7.74028015 275.065735,7.75978088 C275.065735,7.77928162 275.065735,7.79988098 275.065735,7.82157898 L270.940369,7.82157898 Z" id="Shape"></path>
                <path d="M287.064816,3.99078369 L284.996091,3.99078369 L282.756802,11.5036469 L282.67468,11.5036469 L280.460522,3.99078369 L278.30322,3.99078369 L281.611752,13.3483887 L281.533749,13.6440582 C281.420956,14.1313934 281.224187,14.482338 280.94344,14.6968918 C280.662694,14.9114456 280.2608,15.0187225 279.737759,15.0187225 C279.631375,15.0187225 279.504437,15.0128632 279.356946,15.0011444 C279.209454,14.9894257 279.099042,14.9783478 279.025708,14.9679108 L279.025708,16.4452972 C279.152234,16.4733124 279.318654,16.495079 279.524968,16.5105972 C279.731282,16.5261154 279.921826,16.5338745 280.0966,16.5338745 C280.997479,16.5338745 281.72704,16.3146057 282.285283,15.8760681 C282.843526,15.4375305 283.315091,14.7064362 283.699979,13.682785 L283.898145,13.1562653 C284.105054,12.5719757 284.329381,11.934288 284.571126,11.2432022 C284.812871,10.5521164 285.068349,9.81763458 285.33756,9.03975677 C285.60677,8.26187897 285.886235,7.44934845 286.175954,6.60216522 C286.465672,5.75498199 286.76196,4.88452148 287.064816,3.99078369 Z" id="Path"></path>
                <path d="M292.981121,13.2767029 L294.961818,13.2767029 L294.961818,7.74659729 C294.961818,7.32902527 295.046871,6.95565033 295.216976,6.62647247 C295.387081,6.29729462 295.644916,6.03771973 295.990482,5.8477478 C296.336048,5.65777588 296.770488,5.56278992 297.293804,5.56278992 C297.4575,5.56278992 297.615612,5.56839752 297.768138,5.57961273 C297.920665,5.59082794 298.039592,5.60687256 298.124919,5.62774658 L298.124919,3.90577698 C298.032634,3.88801575 297.931949,3.87467194 297.822864,3.86574554 C297.713779,3.85681915 297.595378,3.85235596 297.467662,3.85235596 C296.952129,3.85235596 296.526592,3.94139099 296.191051,4.11946106 C295.85551,4.29753113 295.595569,4.50858307 295.411228,4.75261688 C295.226886,4.9966507 295.09901,5.22349548 295.027599,5.43315125 L294.929821,5.43315125 L294.929821,3.99078369 L292.981121,3.99078369 L292.981121,13.2767029 Z" id="Path"></path>
                <path d="M303.617364,3.83216858 C302.806207,3.83216858 302.089486,4.00499725 301.467202,4.3506546 C300.844919,4.69631195 300.358201,5.18236542 300.007051,5.808815 C299.6559,6.43526459 299.480325,7.17301941 299.480325,8.02207947 L299.480325,9.22288513 C299.480325,10.1222992 299.654825,10.8856201 300.003824,11.5128479 C300.352823,12.1400757 300.837365,12.6172943 301.457452,12.9445038 C302.077539,13.2717133 302.797509,13.435318 303.617364,13.435318 C304.426965,13.435318 305.141443,13.2706375 305.760797,12.9412766 C306.380151,12.6119156 306.865014,12.1332321 307.215387,11.5052261 C307.565759,10.8772202 307.740945,10.1149292 307.740945,9.21835327 L307.740945,8.01521301 C307.740945,7.14454651 307.565759,6.39635468 307.215387,5.77063751 C306.865014,5.14492035 306.380151,4.6654129 305.760797,4.33211517 C305.141443,3.99881744 304.426965,3.83216858 303.617364,3.83216858 Z M303.621621,5.40335083 C304.085428,5.40335083 304.477731,5.52140808 304.798532,5.75752258 C305.119333,5.99363708 305.362863,6.31535339 305.529123,6.72267151 C305.695382,7.12998962 305.778512,7.59375 305.778512,8.11395264 L305.778512,9.15765381 C305.778512,9.67739868 305.698312,10.1413193 305.537912,10.5494156 C305.377511,10.9575119 305.137986,11.2786331 304.819337,11.5127792 C304.500688,11.7469254 304.101449,11.8639984 303.621621,11.8639984 C303.141702,11.8639984 302.739877,11.7465363 302.416147,11.5116119 C302.092416,11.2766876 301.849275,10.9551773 301.686723,10.547081 C301.524171,10.1389847 301.442895,9.67584229 301.442895,9.15765381 L301.442895,8.11395264 C301.442895,7.5953064 301.528177,7.13230133 301.698739,6.72493744 C301.869302,6.31757355 302.116449,5.99546814 302.440179,5.75862122 C302.76391,5.52177429 303.157724,5.40335083 303.621621,5.40335083 Z" id="Shape"></path>
                <path d="M310.667524,4.04777527 L309.224744,4.04777527 L309.224744,5.57624817 L310.640195,5.57624817 L310.640195,10.6626434 C310.640195,11.2816315 310.723348,11.7892685 310.889653,12.1855545 C311.055959,12.5818405 311.347738,12.8736191 311.764989,13.0608902 C312.182241,13.2481613 312.76724,13.3417969 313.519986,13.3417969 C313.73953,13.3417969 313.9829,13.3310852 314.250097,13.3096619 C314.517293,13.2882385 314.689344,13.2701569 314.766248,13.2554169 L314.766248,11.7614136 C314.689801,11.7672729 314.576116,11.7752838 314.425191,11.7854462 C314.274267,11.7956085 314.133115,11.8006897 314.001737,11.8006897 C313.478238,11.8006897 313.10999,11.7119064 312.896993,11.5343399 C312.683996,11.3567734 312.577497,11.0150299 312.577497,10.5091095 L312.577497,5.57624817 L314.655561,5.57624817 L314.655561,4.04777527 L312.577497,4.04777527 L312.577497,1.72746277 L310.667524,1.72746277 L310.667524,4.04777527 Z" id="Path"></path>
                <path d="M319.484539,13.4215851 C319.944591,13.4215851 320.342594,13.3585968 320.678547,13.2326202 C321.014499,13.1066437 321.296802,12.9408417 321.525455,12.7352142 C321.754108,12.5295868 321.93687,12.3084412 322.073742,12.0717773 L322.165065,12.0717773 L322.165065,13.2767029 L324.01736,13.2767029 L324.01736,6.98510742 C324.01736,6.21359253 323.852886,5.59831238 323.523937,5.13926697 C323.194988,4.68022156 322.755512,4.34989929 322.205509,4.14830017 C321.655506,3.94670105 321.047756,3.84590149 320.382259,3.84590149 C319.805843,3.84590149 319.299305,3.90795135 318.862644,4.03205109 C318.425983,4.15615082 318.059589,4.33385468 317.763462,4.56516266 C317.467334,4.79647064 317.238178,5.07078552 317.075992,5.3881073 C316.913807,5.70542908 316.818157,6.05735779 316.789043,6.44389343 L318.64793,6.44389343 C318.699932,6.23799133 318.790043,6.05687714 318.918262,5.90055084 C319.046482,5.74422455 319.225353,5.62115479 319.454876,5.53134155 C319.684398,5.44152832 319.975307,5.3966217 320.327602,5.3966217 C320.861629,5.3966217 321.286159,5.52399445 321.601192,5.77873993 C321.916225,6.03348541 322.073742,6.42558289 322.073742,6.95503235 L322.073742,7.831604 L319.724865,7.831604 C318.654888,7.831604 317.840275,8.08367157 317.281025,8.5878067 C316.721775,9.09194183 316.44215,9.75604248 316.44215,10.5801086 C316.44215,11.447937 316.72427,12.1384735 317.288509,12.6517181 C317.852749,13.1649628 318.584758,13.4215851 319.484539,13.4215851 Z M320.082882,11.9051971 C319.645992,11.9051971 319.256389,11.7889709 318.914074,11.5565186 C318.571758,11.3240662 318.4006,10.9646759 318.4006,10.4783478 C318.4006,10.0904388 318.530559,9.76972961 318.790477,9.51622009 C319.050396,9.26271057 319.465084,9.13595581 320.034542,9.13595581 L322.073742,9.13595581 L322.073742,10.135849 C322.073742,10.4748688 321.984913,10.7774506 321.807255,11.0435944 C321.629596,11.3097382 321.391216,11.5198746 321.092113,11.6740036 C320.79301,11.8281326 320.4566,11.9051971 320.082882,11.9051971 Z" id="Shape"></path>
                <path d="M327.327277,4.04777527 L325.884498,4.04777527 L325.884498,5.57624817 L327.299949,5.57624817 L327.299949,10.6626434 C327.299949,11.2816315 327.383102,11.7892685 327.549407,12.1855545 C327.715713,12.5818405 328.007491,12.8736191 328.424743,13.0608902 C328.841994,13.2481613 329.426994,13.3417969 330.17974,13.3417969 C330.399284,13.3417969 330.642654,13.3310852 330.90985,13.3096619 C331.177047,13.2882385 331.349097,13.2701569 331.426002,13.2554169 L331.426002,11.7614136 C331.349555,11.7672729 331.23587,11.7752838 331.084945,11.7854462 C330.93402,11.7956085 330.792869,11.8006897 330.661491,11.8006897 C330.137992,11.8006897 329.769744,11.7119064 329.556747,11.5343399 C329.343749,11.3567734 329.237251,11.0150299 329.237251,10.5091095 L329.237251,5.57624817 L331.315314,5.57624817 L331.315314,4.04777527 L329.237251,4.04777527 L329.237251,1.72746277 L327.327277,1.72746277 L327.327277,4.04777527 Z" id="Path"></path>
                <path d="M333.802145,13.2767029 L335.748647,13.2767029 L335.748647,3.99078369 L333.802145,3.99078369 L333.802145,13.2767029 Z M333.48258,1.19215393 C333.48258,1.53684998 333.603521,1.81954193 333.845403,2.0402298 C334.087286,2.26091766 334.393667,2.3712616 334.764547,2.3712616 C335.149984,2.3712616 335.463644,2.26091766 335.705526,2.0402298 C335.947408,1.81954193 336.068349,1.53684998 336.068349,1.19215393 C336.068349,0.84022522 335.947019,0.55355072 335.704359,0.332130432 C335.461698,0.110710144 335.148428,0 334.764547,0 C334.39211,0 334.08534,0.110321045 333.844236,0.330963135 C333.603132,0.551605225 333.48258,0.838668823 333.48258,1.19215393 Z" id="Shape"></path>
                <path d="M342.446712,3.83216858 C341.635554,3.83216858 340.918834,4.00499725 340.29655,4.3506546 C339.674266,4.69631195 339.187549,5.18236542 338.836398,5.808815 C338.485248,6.43526459 338.309673,7.17301941 338.309673,8.02207947 L338.309673,9.22288513 C338.309673,10.1222992 338.484172,10.8856201 338.833171,11.5128479 C339.18217,12.1400757 339.666713,12.6172943 340.2868,12.9445038 C340.906886,13.2717133 341.626857,13.435318 342.446712,13.435318 C343.256313,13.435318 343.97079,13.2706375 344.590144,12.9412766 C345.209499,12.6119156 345.694362,12.1332321 346.044734,11.5052261 C346.395106,10.8772202 346.570293,10.1149292 346.570293,9.21835327 L346.570293,8.01521301 C346.570293,7.14454651 346.395106,6.39635468 346.044734,5.77063751 C345.694362,5.14492035 345.209499,4.6654129 344.590144,4.33211517 C343.97079,3.99881744 343.256313,3.83216858 342.446712,3.83216858 Z M342.450969,5.40335083 C342.914775,5.40335083 343.307079,5.52140808 343.627879,5.75752258 C343.94868,5.99363708 344.19221,6.31535339 344.35847,6.72267151 C344.52473,7.12998962 344.60786,7.59375 344.60786,8.11395264 L344.60786,9.15765381 C344.60786,9.67739868 344.52766,10.1413193 344.367259,10.5494156 C344.206859,10.9575119 343.967334,11.2786331 343.648685,11.5127792 C343.330035,11.7469254 342.930797,11.8639984 342.450969,11.8639984 C341.971049,11.8639984 341.569225,11.7465363 341.245494,11.5116119 C340.921764,11.2766876 340.678622,10.9551773 340.516071,10.547081 C340.353519,10.1389847 340.272243,9.67584229 340.272243,9.15765381 L340.272243,8.11395264 C340.272243,7.5953064 340.357524,7.13230133 340.528087,6.72493744 C340.69865,6.31757355 340.945796,5.99546814 341.269527,5.75862122 C341.593257,5.52177429 341.987071,5.40335083 342.450969,5.40335083 Z" id="Shape"></path>
                <path d="M348.932826,13.2767029 L350.879329,13.2767029 L350.879329,8.11683655 C350.879329,7.61347961 350.962481,7.16521454 351.128787,6.77204132 C351.295092,6.3788681 351.541324,6.06960297 351.86748,5.84424591 C352.193637,5.61888885 352.595713,5.50621033 353.07371,5.50621033 C353.441295,5.50621033 353.762851,5.58039093 354.038379,5.72875214 C354.313907,5.87711334 354.529124,6.10299683 354.684031,6.40640259 C354.838939,6.70980835 354.916392,7.09771729 354.916392,7.57012939 L354.916392,13.2767029 L356.863032,13.2767029 L356.863032,6.99884033 C356.863032,5.93838501 356.575717,5.14778137 356.001086,4.62702942 C355.426455,4.10627747 354.671763,3.84590149 353.73701,3.84590149 C353.112529,3.84590149 352.609149,3.94615173 352.22687,4.14665222 C351.844592,4.34715271 351.555514,4.58720398 351.359637,4.86680603 C351.16376,5.14640808 351.025584,5.40852356 350.945109,5.65315247 L350.847331,5.65315247 L350.847331,3.99078369 L348.932826,3.99078369 L348.932826,13.2767029 Z" id="Path"></path>
                <path d="M363.112204,6.68984985 C363.112204,7.29483032 363.250861,7.76911926 363.528174,8.11271667 C363.805487,8.45631409 364.17758,8.71673584 364.644453,8.89398193 C365.111327,9.07122803 365.626562,9.21835327 366.190161,9.33535767 C366.609839,9.41427612 366.994749,9.49777222 367.344893,9.58584595 C367.695036,9.67391968 367.97608,9.80138397 368.188025,9.96823883 C368.399969,10.1350937 368.505942,10.3796997 368.505942,10.7020569 C368.505942,10.9421997 368.442267,11.1612396 368.314917,11.3591766 C368.187567,11.5571136 367.988211,11.7157288 367.716849,11.835022 C367.445486,11.9543152 367.091589,12.0139618 366.655157,12.0139618 C366.265143,12.0139618 365.94155,11.9632416 365.684378,11.8618011 C365.427206,11.7603607 365.230826,11.6166916 365.095236,11.4307938 C364.959647,11.2448959 364.872992,11.0273895 364.835272,10.7782745 L362.938071,10.7782745 C362.938071,11.3321686 363.0865,11.8068924 363.38336,12.202446 C363.68022,12.5979996 364.100287,12.9023666 364.643561,13.1155472 C365.186835,13.3287277 365.826971,13.435318 366.563971,13.435318 C367.349127,13.435318 368.029066,13.3189774 368.603789,13.0862961 C369.178511,12.8536148 369.622404,12.5161057 369.935469,12.0737686 C370.248534,11.6314316 370.405066,11.0979767 370.405066,10.4734039 C370.405066,9.88536072 370.269316,9.41938019 369.997816,9.07546234 C369.726317,8.73154449 369.359213,8.4681015 368.896506,8.28513336 C368.433798,8.10216522 367.913138,7.96238708 367.334524,7.86579895 C367.078451,7.82194519 366.812926,7.7744751 366.537947,7.72338867 C366.262968,7.67230225 366.008383,7.60153198 365.774191,7.51107788 C365.539999,7.42062378 365.349821,7.29695892 365.203657,7.14008331 C365.057494,6.9832077 364.984412,6.77494812 364.984412,6.51530457 C364.984412,6.11833191 365.138518,5.80911255 365.44673,5.58764648 C365.754942,5.36618042 366.159079,5.25544739 366.65914,5.25544739 C367.036063,5.25544739 367.34828,5.31591797 367.595793,5.43685913 C367.843306,5.55780029 368.032637,5.71263885 368.163786,5.90137482 C368.294936,6.09011078 368.369299,6.28656006 368.386877,6.49072266 L370.14469,6.49072266 C370.14469,5.9395752 370.000334,5.46633911 369.711623,5.0710144 C369.422911,4.6756897 369.021246,4.37038422 368.506628,4.15509796 C367.99201,3.93981171 367.393622,3.83216858 366.711462,3.83216858 C366.084143,3.83216858 365.496626,3.92999268 364.948912,4.12564087 C364.401198,4.32128906 363.958151,4.6288147 363.619772,5.04821777 C363.281393,5.46762085 363.112204,6.01483154 363.112204,6.68984985 Z" id="Path"></path>
                <path d="M380.538385,3.99078369 L378.591882,3.99078369 L378.591882,9.70806885 C378.591882,10.0943298 378.495729,10.4435577 378.303422,10.7557526 C378.111116,11.0679474 377.852273,11.3143387 377.526895,11.4949265 C377.201516,11.6755142 376.835901,11.7658081 376.430047,11.7658081 C376.101464,11.7658081 375.797235,11.7089539 375.517358,11.5952454 C375.237481,11.4815369 375.010705,11.2845383 374.83703,11.0042496 C374.663354,10.7239609 374.576516,10.3375397 374.576516,9.84498596 L374.576516,3.99078369 L372.630014,3.99078369 L372.630014,10.3576355 C372.630014,11.083374 372.7632,11.6711655 373.029573,12.1210098 C373.295945,12.5708542 373.665246,12.9000778 374.137475,13.1086807 C374.609704,13.3172836 375.154947,13.4215851 375.773202,13.4215851 C376.316842,13.4215851 376.777238,13.3321609 377.15439,13.1533127 C377.531541,12.9744644 377.832154,12.7549896 378.05623,12.4948883 C378.280305,12.234787 378.434777,11.9803162 378.519647,11.7314758 L378.62388,11.7314758 L378.62388,13.2767029 L380.538385,13.2767029 L380.538385,3.99078369 Z" id="Path"></path>
                <path d="M388.044646,13.4078522 C388.776885,13.4078522 389.408667,13.2439957 389.939994,12.9162827 C390.47132,12.5885696 390.879645,12.1214676 391.164969,11.5149765 C391.450293,10.9084854 391.592955,10.1848297 391.592955,9.3440094 L391.592955,7.91235352 C391.592955,7.07592773 391.451758,6.35483551 391.169364,5.74907684 C390.886969,5.14331818 390.484435,4.67697144 389.96176,4.35003662 C389.439086,4.02310181 388.815245,3.8596344 388.090239,3.8596344 C387.759276,3.8596344 387.448134,3.89586639 387.156813,3.96833038 C386.865493,4.04079437 386.600539,4.14658356 386.361952,4.28569794 C386.123366,4.42481232 385.917327,4.59358978 385.743834,4.79203033 C385.570342,4.99047089 385.436721,5.21351624 385.342971,5.46116638 L385.245192,5.46116638 L385.245192,3.98419189 L383.346205,3.98419189 L383.346205,16.3580933 L385.29724,16.3580933 L385.29724,11.8797913 L385.395018,11.8797913 C385.536925,12.2066345 385.733855,12.483284 385.985808,12.7097397 C386.237761,12.9361954 386.53842,13.1091614 386.887786,13.2286377 C387.237151,13.348114 387.622771,13.4078522 388.044646,13.4078522 Z M387.492583,11.8092041 C387.056975,11.8092041 386.674262,11.7091827 386.344443,11.50914 C386.014624,11.3090973 385.757636,11.0283279 385.573477,10.666832 C385.389319,10.305336 385.29724,9.88787842 385.29724,9.41445923 L385.29724,8.004776 C385.29724,7.47779846 385.384993,7.02420044 385.5605,6.64398193 C385.736006,6.26376343 385.985419,5.97184753 386.308737,5.76823425 C386.632056,5.56462097 387.015822,5.46281433 387.460036,5.46281433 C387.918898,5.46281433 388.308913,5.56965637 388.63008,5.78334045 C388.951247,5.99702454 389.194846,6.30699921 389.360877,6.71326447 C389.526908,7.11952972 389.609923,7.6129303 389.609923,8.19346619 L389.609923,9.08926392 C389.609923,9.66394043 389.526908,10.1537018 389.360877,10.558548 C389.194846,10.9633942 388.954497,11.2730484 388.63983,11.4875107 C388.325164,11.701973 387.942748,11.8092041 387.492583,11.8092041 Z" id="Shape"></path>
                <path d="M398.682711,13.4078522 C399.41495,13.4078522 400.046732,13.2439957 400.578059,12.9162827 C401.109385,12.5885696 401.51771,12.1214676 401.803034,11.5149765 C402.088358,10.9084854 402.23102,10.1848297 402.23102,9.3440094 L402.23102,7.91235352 C402.23102,7.07592773 402.089823,6.35483551 401.807429,5.74907684 C401.525034,5.14331818 401.1225,4.67697144 400.599825,4.35003662 C400.077151,4.02310181 399.45331,3.8596344 398.728304,3.8596344 C398.397341,3.8596344 398.086199,3.89586639 397.794878,3.96833038 C397.503558,4.04079437 397.238604,4.14658356 397.000018,4.28569794 C396.761431,4.42481232 396.555392,4.59358978 396.381899,4.79203033 C396.208407,4.99047089 396.074786,5.21351624 395.981036,5.46116638 L395.883257,5.46116638 L395.883257,3.98419189 L393.984271,3.98419189 L393.984271,16.3580933 L395.935305,16.3580933 L395.935305,11.8797913 L396.033083,11.8797913 C396.17499,12.2066345 396.37192,12.483284 396.623873,12.7097397 C396.875826,12.9361954 397.176485,13.1091614 397.525851,13.2286377 C397.875216,13.348114 398.260836,13.4078522 398.682711,13.4078522 Z M398.130648,11.8092041 C397.69504,11.8092041 397.312327,11.7091827 396.982508,11.50914 C396.652689,11.3090973 396.395701,11.0283279 396.211543,10.666832 C396.027384,10.305336 395.935305,9.88787842 395.935305,9.41445923 L395.935305,8.004776 C395.935305,7.47779846 396.023058,7.02420044 396.198565,6.64398193 C396.374072,6.26376343 396.623484,5.97184753 396.946803,5.76823425 C397.270121,5.56462097 397.653887,5.46281433 398.098101,5.46281433 C398.556963,5.46281433 398.946978,5.56965637 399.268145,5.78334045 C399.589312,5.99702454 399.832911,6.30699921 399.998942,6.71326447 C400.164973,7.11952972 400.247988,7.6129303 400.247988,8.19346619 L400.247988,9.08926392 C400.247988,9.66394043 400.164973,10.1537018 399.998942,10.558548 C399.832911,10.9633942 399.592562,11.2730484 399.277895,11.4875107 C398.963229,11.701973 398.580813,11.8092041 398.130648,11.8092041 Z" id="Shape"></path>
                <path d="M408.314017,3.83216858 C407.502859,3.83216858 406.786139,4.00499725 406.163855,4.3506546 C405.541571,4.69631195 405.054854,5.18236542 404.703703,5.808815 C404.352553,6.43526459 404.176977,7.17301941 404.176977,8.02207947 L404.176977,9.22288513 C404.176977,10.1222992 404.351477,10.8856201 404.700476,11.5128479 C405.049475,12.1400757 405.534018,12.6172943 406.154104,12.9445038 C406.774191,13.2717133 407.494162,13.435318 408.314017,13.435318 C409.123617,13.435318 409.838095,13.2706375 410.457449,12.9412766 C411.076803,12.6119156 411.561667,12.1332321 411.912039,11.5052261 C412.262411,10.8772202 412.437597,10.1149292 412.437597,9.21835327 L412.437597,8.01521301 C412.437597,7.14454651 412.262411,6.39635468 411.912039,5.77063751 C411.561667,5.14492035 411.076803,4.6654129 410.457449,4.33211517 C409.838095,3.99881744 409.123617,3.83216858 408.314017,3.83216858 Z M408.318274,5.40335083 C408.78208,5.40335083 409.174383,5.52140808 409.495184,5.75752258 C409.815985,5.99363708 410.059515,6.31535339 410.225775,6.72267151 C410.392035,7.12998962 410.475165,7.59375 410.475165,8.11395264 L410.475165,9.15765381 C410.475165,9.67739868 410.394964,10.1413193 410.234564,10.5494156 C410.074164,10.9575119 409.834639,11.2786331 409.515989,11.5127792 C409.19734,11.7469254 408.798102,11.8639984 408.318274,11.8639984 C407.838354,11.8639984 407.436529,11.7465363 407.112799,11.5116119 C406.789068,11.2766876 406.545927,10.9551773 406.383375,10.547081 C406.220823,10.1389847 406.139548,9.67584229 406.139548,9.15765381 L406.139548,8.11395264 C406.139548,7.5953064 406.224829,7.13230133 406.395392,6.72493744 C406.565954,6.31757355 406.813101,5.99546814 407.136831,5.75862122 C407.460562,5.52177429 407.854376,5.40335083 408.318274,5.40335083 Z" id="Shape"></path>
                <path d="M414.917272,13.2767029 L416.89797,13.2767029 L416.89797,7.74659729 C416.89797,7.32902527 416.983023,6.95565033 417.153128,6.62647247 C417.323233,6.29729462 417.581068,6.03771973 417.926634,5.8477478 C418.272199,5.65777588 418.70664,5.56278992 419.229956,5.56278992 C419.393652,5.56278992 419.551763,5.56839752 419.70429,5.57961273 C419.856817,5.59082794 419.975744,5.60687256 420.061071,5.62774658 L420.061071,3.90577698 C419.968786,3.88801575 419.868101,3.87467194 419.759016,3.86574554 C419.649931,3.85681915 419.53153,3.85235596 419.403814,3.85235596 C418.888281,3.85235596 418.462744,3.94139099 418.127203,4.11946106 C417.791662,4.29753113 417.531721,4.50858307 417.34738,4.75261688 C417.163038,4.9966507 417.035162,5.22349548 416.963751,5.43315125 L416.865972,5.43315125 L416.865972,3.99078369 L414.917272,3.99078369 L414.917272,13.2767029 Z" id="Path"></path>
                <path d="M422.988827,4.04777527 L421.546047,4.04777527 L421.546047,5.57624817 L422.961499,5.57624817 L422.961499,10.6626434 C422.961499,11.2816315 423.044651,11.7892685 423.210957,12.1855545 C423.377262,12.5818405 423.669041,12.8736191 424.086293,13.0608902 C424.503544,13.2481613 425.088543,13.3417969 425.84129,13.3417969 C426.060833,13.3417969 426.304203,13.3310852 426.5714,13.3096619 C426.838597,13.2882385 427.010647,13.2701569 427.087551,13.2554169 L427.087551,11.7614136 C427.011105,11.7672729 426.897419,11.7752838 426.746495,11.7854462 C426.59557,11.7956085 426.454418,11.8006897 426.32304,11.8006897 C425.799542,11.8006897 425.431294,11.7119064 425.218296,11.5343399 C425.005299,11.3567734 424.8988,11.0150299 424.8988,10.5091095 L424.8988,5.57624817 L426.976864,5.57624817 L426.976864,4.04777527 L424.8988,4.04777527 L424.8988,1.72746277 L422.988827,1.72746277 L422.988827,4.04777527 Z" id="Path"></path>
                <path d="M433.96635,13.2767029 L435.905986,13.2767029 L435.905986,5.57624817 L437.997646,5.57624817 L437.997646,4.04777527 L435.878658,4.04777527 L435.878658,3.28065491 C435.878658,2.79048157 435.995113,2.4539566 436.228023,2.27108002 C436.460933,2.08820343 436.83424,1.99676514 437.347942,1.99676514 C437.474559,1.99676514 437.628299,2.00045013 437.809162,2.00782013 C437.990024,2.01519012 438.1179,2.0247345 438.192791,2.03645325 L438.192791,0.575134277 C438.081554,0.558837891 437.912456,0.543685913 437.685497,0.529678345 C437.458538,0.515670776 437.234005,0.508666992 437.011898,0.508666992 C435.924434,0.508666992 435.144977,0.718070984 434.673526,1.13687897 C434.202076,1.55568695 433.96635,2.21763611 433.96635,3.12272644 L433.96635,4.04777527 L432.424831,4.04777527 L432.424831,5.57624817 L433.96635,5.57624817 L433.96635,13.2767029 Z" id="Path"></path>
                <path d="M443.582613,3.83216858 C442.771456,3.83216858 442.054735,4.00499725 441.432451,4.3506546 C440.810167,4.69631195 440.32345,5.18236542 439.972299,5.808815 C439.621149,6.43526459 439.445574,7.17301941 439.445574,8.02207947 L439.445574,9.22288513 C439.445574,10.1222992 439.620073,10.8856201 439.969072,11.5128479 C440.318071,12.1400757 440.802614,12.6172943 441.422701,12.9445038 C442.042787,13.2717133 442.762758,13.435318 443.582613,13.435318 C444.392214,13.435318 445.106691,13.2706375 445.726045,12.9412766 C446.3454,12.6119156 446.830263,12.1332321 447.180635,11.5052261 C447.531008,10.8772202 447.706194,10.1149292 447.706194,9.21835327 L447.706194,8.01521301 C447.706194,7.14454651 447.531008,6.39635468 447.180635,5.77063751 C446.830263,5.14492035 446.3454,4.6654129 445.726045,4.33211517 C445.106691,3.99881744 444.392214,3.83216858 443.582613,3.83216858 Z M443.58687,5.40335083 C444.050676,5.40335083 444.44298,5.52140808 444.76378,5.75752258 C445.084581,5.99363708 445.328112,6.31535339 445.494371,6.72267151 C445.660631,7.12998962 445.743761,7.59375 445.743761,8.11395264 L445.743761,9.15765381 C445.743761,9.67739868 445.663561,10.1413193 445.50316,10.5494156 C445.34276,10.9575119 445.103235,11.2786331 444.784586,11.5127792 C444.465937,11.7469254 444.066698,11.8639984 443.58687,11.8639984 C443.106951,11.8639984 442.705126,11.7465363 442.381395,11.5116119 C442.057665,11.2766876 441.814524,10.9551773 441.651972,10.547081 C441.48942,10.1389847 441.408144,9.67584229 441.408144,9.15765381 L441.408144,8.11395264 C441.408144,7.5953064 441.493425,7.13230133 441.663988,6.72493744 C441.834551,6.31757355 442.081697,5.99546814 442.405428,5.75862122 C442.729158,5.52177429 443.122972,5.40335083 443.58687,5.40335083 Z" id="Shape"></path>
                <path d="M450.185869,13.2767029 L452.166566,13.2767029 L452.166566,7.74659729 C452.166566,7.32902527 452.251619,6.95565033 452.421724,6.62647247 C452.591829,6.29729462 452.849664,6.03771973 453.19523,5.8477478 C453.540796,5.65777588 453.975236,5.56278992 454.498552,5.56278992 C454.662248,5.56278992 454.82036,5.56839752 454.972887,5.57961273 C455.125413,5.59082794 455.24434,5.60687256 455.329668,5.62774658 L455.329668,3.90577698 C455.237382,3.88801575 455.136697,3.87467194 455.027612,3.86574554 C454.918527,3.85681915 454.800127,3.85235596 454.672411,3.85235596 C454.156877,3.85235596 453.73134,3.94139099 453.395799,4.11946106 C453.060258,4.29753113 452.800317,4.50858307 452.615976,4.75261688 C452.431634,4.9966507 452.303758,5.22349548 452.232347,5.43315125 L452.134569,5.43315125 L452.134569,3.99078369 L450.185869,3.99078369 L450.185869,13.2767029 Z" id="Path"></path>
                <path d="M464.634294,15.1512451 C464.268724,15.1512451 463.947809,15.102562 463.671549,15.0051956 C463.395288,14.9078293 463.174646,14.7761078 463.009622,14.6100311 C462.844599,14.4439545 462.740847,14.2572327 462.698366,14.0498657 L460.767931,14.0498657 C460.804186,14.5121155 460.963488,14.9421616 461.245836,15.340004 C461.528185,15.7378464 461.944429,16.0597229 462.49457,16.3056335 C463.04471,16.5515442 463.738085,16.6744995 464.574694,16.6744995 C465.157061,16.6744995 465.704294,16.6073685 466.216394,16.4731064 C466.728495,16.3388443 467.178293,16.1269226 467.56579,15.8373413 C467.953287,15.54776 468.25786,15.1726685 468.479509,14.7120667 C468.701158,14.2514648 468.811983,13.6948242 468.811983,13.0421448 L468.811983,3.99078369 L466.917528,3.99078369 L466.917528,5.40252686 L466.826342,5.40252686 C466.725176,5.13665771 466.551226,4.88616943 466.304491,4.65106201 C466.057756,4.41595459 465.752794,4.22527313 465.389604,4.07901764 C465.026415,3.93276215 464.614931,3.8596344 464.155153,3.8596344 C463.473909,3.8596344 462.862589,4.01763153 462.321192,4.33362579 C461.779795,4.64962006 461.352266,5.10729218 461.038607,5.70664215 C460.724947,6.30599213 460.568117,7.02932739 460.568117,7.87664795 L460.568117,9.10107422 C460.568117,9.94692993 460.724947,10.6688232 461.038607,11.2667542 C461.352266,11.8646851 461.78087,12.3205719 462.324419,12.6344147 C462.867967,12.9482574 463.480364,13.1051788 464.161608,13.1051788 C464.485613,13.1051788 464.786844,13.0674591 465.065302,12.9920197 C465.343759,12.9165802 465.593927,12.8125763 465.815805,12.6800079 C466.037683,12.5474396 466.228433,12.3935852 466.388056,12.2184448 C466.547678,12.0433044 466.672075,11.8546143 466.761248,11.6523743 L466.86548,11.6523743 L466.86548,12.9786987 C466.86548,13.6629639 466.681574,14.1961212 466.313761,14.5781708 C465.945948,14.9602203 465.386125,15.1512451 464.634294,15.1512451 Z M464.765718,5.46281433 C465.205446,5.46281433 465.581179,5.574646 465.892916,5.79830933 C466.204653,6.02197266 466.444681,6.31919861 466.613001,6.68998718 C466.78132,7.06077576 466.86548,7.47088623 466.86548,7.9203186 L466.86548,9.14968872 C466.86548,9.58456421 466.784571,9.98561096 466.622751,10.352829 C466.460932,10.720047 466.225229,11.0147781 465.915644,11.2370224 C465.606058,11.4592667 465.227098,11.5703888 464.778765,11.5703888 C464.344896,11.5703888 463.959803,11.461441 463.623484,11.2435455 C463.287165,11.02565 463.024362,10.7179184 462.835077,10.3203506 C462.645792,9.9227829 462.551149,9.45671082 462.551149,8.9221344 L462.551149,8.12191772 C462.551149,7.58294678 462.641443,7.1139679 462.822031,6.71498108 C463.002619,6.31599426 463.258921,6.0075531 463.590937,5.78965759 C463.922953,5.57176208 464.314546,5.46281433 464.765718,5.46281433 Z" id="Shape"></path>
                <path d="M475.300114,3.83216858 C474.488956,3.83216858 473.772236,4.00499725 473.149952,4.3506546 C472.527668,4.69631195 472.040951,5.18236542 471.6898,5.808815 C471.33865,6.43526459 471.163074,7.17301941 471.163074,8.02207947 L471.163074,9.22288513 C471.163074,10.1222992 471.337574,10.8856201 471.686573,11.5128479 C472.035572,12.1400757 472.520115,12.6172943 473.140201,12.9445038 C473.760288,13.2717133 474.480259,13.435318 475.300114,13.435318 C476.109714,13.435318 476.824192,13.2706375 477.443546,12.9412766 C478.0629,12.6119156 478.547764,12.1332321 478.898136,11.5052261 C479.248508,10.8772202 479.423695,10.1149292 479.423695,9.21835327 L479.423695,8.01521301 C479.423695,7.14454651 479.248508,6.39635468 478.898136,5.77063751 C478.547764,5.14492035 478.0629,4.6654129 477.443546,4.33211517 C476.824192,3.99881744 476.109714,3.83216858 475.300114,3.83216858 Z M475.304371,5.40335083 C475.768177,5.40335083 476.16048,5.52140808 476.481281,5.75752258 C476.802082,5.99363708 477.045612,6.31535339 477.211872,6.72267151 C477.378132,7.12998962 477.461262,7.59375 477.461262,8.11395264 L477.461262,9.15765381 C477.461262,9.67739868 477.381061,10.1413193 477.220661,10.5494156 C477.060261,10.9575119 476.820736,11.2786331 476.502087,11.5127792 C476.183437,11.7469254 475.784199,11.8639984 475.304371,11.8639984 C474.824451,11.8639984 474.422626,11.7465363 474.098896,11.5116119 C473.775165,11.2766876 473.532024,10.9551773 473.369472,10.547081 C473.206921,10.1389847 473.125645,9.67584229 473.125645,9.15765381 L473.125645,8.11395264 C473.125645,7.5953064 473.210926,7.13230133 473.381489,6.72493744 C473.552051,6.31757355 473.799198,5.99546814 474.122929,5.75862122 C474.446659,5.52177429 474.840473,5.40335083 475.304371,5.40335083 Z" id="Shape"></path>
                <polygon id="Path" points="481.848163 13.2767029 483.796863 13.2767029 483.796863 0.646820068 481.848163 0.646820068"></polygon>
                <path d="M489.200657,13.4215851 C489.660709,13.4215851 490.058712,13.3585968 490.394665,13.2326202 C490.730617,13.1066437 491.01292,12.9408417 491.241573,12.7352142 C491.470226,12.5295868 491.652988,12.3084412 491.78986,12.0717773 L491.881184,12.0717773 L491.881184,13.2767029 L493.733478,13.2767029 L493.733478,6.98510742 C493.733478,6.21359253 493.569004,5.59831238 493.240055,5.13926697 C492.911106,4.68022156 492.47163,4.34989929 491.921627,4.14830017 C491.371624,3.94670105 490.763874,3.84590149 490.098377,3.84590149 C489.521961,3.84590149 489.015423,3.90795135 488.578762,4.03205109 C488.142101,4.15615082 487.775707,4.33385468 487.47958,4.56516266 C487.183453,4.79647064 486.954296,5.07078552 486.79211,5.3881073 C486.629925,5.70542908 486.534275,6.05735779 486.505161,6.44389343 L488.364048,6.44389343 C488.41605,6.23799133 488.506161,6.05687714 488.63438,5.90055084 C488.7626,5.74422455 488.941471,5.62115479 489.170994,5.53134155 C489.400516,5.44152832 489.691425,5.3966217 490.04372,5.3966217 C490.577747,5.3966217 491.002277,5.52399445 491.31731,5.77873993 C491.632343,6.03348541 491.78986,6.42558289 491.78986,6.95503235 L491.78986,7.831604 L489.440983,7.831604 C488.371006,7.831604 487.556393,8.08367157 486.997143,8.5878067 C486.437893,9.09194183 486.158268,9.75604248 486.158268,10.5801086 C486.158268,11.447937 486.440388,12.1384735 487.004627,12.6517181 C487.568867,13.1649628 488.300877,13.4215851 489.200657,13.4215851 Z M489.799,11.9051971 C489.36211,11.9051971 488.972507,11.7889709 488.630192,11.5565186 C488.287876,11.3240662 488.116718,10.9646759 488.116718,10.4783478 C488.116718,10.0904388 488.246677,9.76972961 488.506596,9.51622009 C488.766514,9.26271057 489.181202,9.13595581 489.75066,9.13595581 L491.78986,9.13595581 L491.78986,10.135849 C491.78986,10.4748688 491.701031,10.7774506 491.523373,11.0435944 C491.345714,11.3097382 491.107334,11.5198746 490.808231,11.6740036 C490.509128,11.8281326 490.172718,11.9051971 489.799,11.9051971 Z" id="Shape"></path>
                <path d="M496.47935,13.2767029 L498.425853,13.2767029 L498.425853,8.11683655 C498.425853,7.61347961 498.509006,7.16521454 498.675311,6.77204132 C498.841617,6.3788681 499.087848,6.06960297 499.414004,5.84424591 C499.740161,5.61888885 500.142238,5.50621033 500.620235,5.50621033 C500.987819,5.50621033 501.309375,5.58039093 501.584903,5.72875214 C501.860431,5.87711334 502.075648,6.10299683 502.230556,6.40640259 C502.385463,6.70980835 502.462916,7.09771729 502.462916,7.57012939 L502.462916,13.2767029 L504.409556,13.2767029 L504.409556,6.99884033 C504.409556,5.93838501 504.122241,5.14778137 503.54761,4.62702942 C502.97298,4.10627747 502.218288,3.84590149 501.283534,3.84590149 C500.659053,3.84590149 500.155673,3.94615173 499.773395,4.14665222 C499.391116,4.34715271 499.102038,4.58720398 498.906161,4.86680603 C498.710284,5.14640808 498.572108,5.40852356 498.491634,5.65315247 L498.393855,5.65315247 L498.393855,3.99078369 L496.47935,3.99078369 L496.47935,13.2767029 Z" id="Path"></path>
                <path d="M510.714986,15.1512451 C510.349416,15.1512451 510.028501,15.102562 509.752241,15.0051956 C509.47598,14.9078293 509.255338,14.7761078 509.090315,14.6100311 C508.925291,14.4439545 508.821539,14.2572327 508.779058,14.0498657 L506.848623,14.0498657 C506.884878,14.5121155 507.04418,14.9421616 507.326528,15.340004 C507.608877,15.7378464 508.025121,16.0597229 508.575262,16.3056335 C509.125402,16.5515442 509.818777,16.6744995 510.655386,16.6744995 C511.237753,16.6744995 511.784986,16.6073685 512.297086,16.4731064 C512.809187,16.3388443 513.258985,16.1269226 513.646482,15.8373413 C514.033979,15.54776 514.338552,15.1726685 514.560201,14.7120667 C514.78185,14.2514648 514.892675,13.6948242 514.892675,13.0421448 L514.892675,3.99078369 L512.99822,3.99078369 L512.99822,5.40252686 L512.907034,5.40252686 C512.805868,5.13665771 512.631918,4.88616943 512.385183,4.65106201 C512.138448,4.41595459 511.833486,4.22527313 511.470297,4.07901764 C511.107107,3.93276215 510.695623,3.8596344 510.235845,3.8596344 C509.554601,3.8596344 508.943281,4.01763153 508.401884,4.33362579 C507.860487,4.64962006 507.432958,5.10729218 507.119299,5.70664215 C506.805639,6.30599213 506.648809,7.02932739 506.648809,7.87664795 L506.648809,9.10107422 C506.648809,9.94692993 506.805639,10.6688232 507.119299,11.2667542 C507.432958,11.8646851 507.861562,12.3205719 508.405111,12.6344147 C508.94866,12.9482574 509.561056,13.1051788 510.2423,13.1051788 C510.566305,13.1051788 510.867536,13.0674591 511.145994,12.9920197 C511.424451,12.9165802 511.674619,12.8125763 511.896497,12.6800079 C512.118375,12.5474396 512.309126,12.3935852 512.468748,12.2184448 C512.62837,12.0433044 512.752767,11.8546143 512.84194,11.6523743 L512.946172,11.6523743 L512.946172,12.9786987 C512.946172,13.6629639 512.762266,14.1961212 512.394453,14.5781708 C512.02664,14.9602203 511.466818,15.1512451 510.714986,15.1512451 Z M510.84641,5.46281433 C511.286138,5.46281433 511.661871,5.574646 511.973608,5.79830933 C512.285345,6.02197266 512.525373,6.31919861 512.693693,6.68998718 C512.862013,7.06077576 512.946172,7.47088623 512.946172,7.9203186 L512.946172,9.14968872 C512.946172,9.58456421 512.865263,9.98561096 512.703443,10.352829 C512.541624,10.720047 512.305921,11.0147781 511.996336,11.2370224 C511.68675,11.4592667 511.30779,11.5703888 510.859457,11.5703888 C510.425588,11.5703888 510.040495,11.461441 509.704176,11.2435455 C509.367857,11.02565 509.105054,10.7179184 508.915769,10.3203506 C508.726484,9.9227829 508.631841,9.45671082 508.631841,8.9221344 L508.631841,8.12191772 C508.631841,7.58294678 508.722135,7.1139679 508.902723,6.71498108 C509.083311,6.31599426 509.339613,6.0075531 509.671629,5.78965759 C510.003645,5.57176208 510.395239,5.46281433 510.84641,5.46281433 Z" id="Shape"></path>
            </g>
            <g id="keyring" transform="translate(11.3511, 382.02)" fill="#E48E66">
                <polygon id="Path" points="-1.42108547e-14 91.98 28.602 91.98 28.602 80.388 34.272 73.08 44.226 91.98 74.844 91.98 52.92 51.156 74.466 23.184 43.344 23.184 28.602 44.352 28.602 0 -1.42108547e-14 0"></polygon>
                <path d="M110.712,93.618 C125.58,93.618 135.282,87.444 142.086,78.624 L126.714,66.402 C122.178,71.064 117.894,73.458 112.728,73.458 C106.554,73.458 101.766,70.308 99.75,64.26 L143.976,64.26 C144.102,62.748 144.102,60.984 144.102,59.472 C144.102,38.556 132.762,21.546 108.318,21.546 C87.654,21.546 72.912,37.17 72.912,57.708 L72.912,57.96 C72.912,79.38 88.158,93.618 110.712,93.618 Z M99.372,51.66 C100.254,45.36 103.656,41.328 108.444,41.328 C113.484,41.328 117.39,45.108 118.02,51.66 L99.372,51.66 Z" id="Shape"></path>
                <path d="M173.418,112.518 C189.294,112.518 196.602,105.21 203.28,87.192 L227.094,23.184 L197.988,23.184 L187.026,59.472 L175.056,23.184 L145.446,23.184 L172.41,89.334 C170.898,90.09 169.386,90.342 167.748,90.342 C165.102,90.342 160.314,88.704 155.148,85.806 L146.832,105.336 C154.518,109.62 163.464,112.518 173.418,112.518 Z" id="Path"></path>
                <path d="M233.604,91.98 L262.206,91.98 L262.206,74.466 C262.206,59.22 268.632,52.542 280.728,52.542 L283.752,52.542 L283.752,22.176 C272.412,21.672 266.112,27.72 262.206,37.044 L262.206,23.184 L233.604,23.184 L233.604,91.98 Z" id="Path"></path>
                <path d="M290.514,18.27 L320.124,18.27 L320.124,0 L290.514,0 L290.514,18.27 Z M291.018,91.98 L319.62,91.98 L319.62,23.184 L291.018,23.184 L291.018,91.98 Z" id="Shape"></path>
                <path d="M330.54,91.98 L359.142,91.98 L359.142,55.818 C359.142,49.896 363.048,46.494 367.332,46.494 C371.616,46.494 375.144,49.896 375.144,55.818 L375.144,91.98 L403.746,91.98 L403.746,46.62 C403.746,31.122 394.674,21.546 380.184,21.546 C370.482,21.546 363.552,27.09 359.142,32.76 L359.142,23.184 L330.54,23.184 L330.54,91.98 Z" id="Path"></path>
                <path d="M450.576,112.392 C465.948,112.392 475.398,108.486 481.572,102.312 C487.872,96.012 490.518,87.318 490.518,74.592 L490.518,23.184 L461.916,23.184 L461.916,30.492 C456.876,25.326 450.954,21.546 440.874,21.546 C424.998,21.546 411.894,34.272 411.894,53.55 L411.894,53.802 C411.894,72.828 424.746,85.428 442.512,85.428 C452.088,85.428 458.514,80.388 462.42,75.978 L462.42,77.994 C462.42,87.57 456.75,93.114 446.04,93.114 C436.59,93.114 428.904,90.594 421.218,86.562 L412.398,103.824 C423.486,109.368 435.33,112.392 450.576,112.392 Z M451.08,64.512 C444.15,64.512 439.614,59.85 439.614,53.928 L439.614,53.676 C439.614,47.628 444.024,42.714 451.08,42.714 C458.01,42.714 462.546,47.502 462.546,53.424 L462.546,53.676 C462.546,59.724 458.136,64.512 451.08,64.512 Z" id="Shape"></path>
            </g>
        </g>
    </g>
</svg>